<svg width="209" height="31" viewBox="0 0 209 31" fill="none" xmlns="http://www.w3.org/2000/svg">
<path d="M13.4276 0.131836C22.5987 0.131836 29.4881 5.66084 29.4881 15.0953C29.4881 23.4326 22.9497 30.8485 13.2082 30.8485H0V30.5414H1.53584C2.45734 30.5414 3.20332 29.7953 3.20332 28.8738V2.10647C3.20332 1.18498 2.45734 0.439003 1.53584 0.439003H0V0.131836H13.4276ZM13.647 30.5414C21.8967 30.5414 27.3817 22.2478 27.3817 15.0953C27.3817 5.66084 20.975 0.439003 12.9888 0.439003H5.3096V28.8738C5.3096 29.7953 6.05558 30.5414 7.02095 30.5414H13.647ZM55.6658 22.0285L55.9729 22.1162L53.6034 30.8485H31.8823V30.5414H33.4181C34.3395 30.5414 35.0856 29.7953 35.0856 28.8738V2.10647C35.0856 1.18498 34.3395 0.439003 33.4181 0.439003H31.8823V0.131836H51.19L54.6126 6.09964L54.3054 6.2313L53.3839 4.56381C51.8043 1.79931 49.4786 0.439003 45.8803 0.439003H37.1918V13.6472H43.2913C44.6955 13.6472 45.8364 12.5502 45.8364 11.146V9.96119H46.1436V17.6842H45.8364V16.4994C45.8364 15.0953 44.6955 13.9982 43.2913 13.9982H37.1918V28.8738C37.1918 29.7953 37.9379 30.5414 38.9032 30.5414H48.1621C51.4093 30.5414 54.0421 27.9962 54.832 25.0562L55.6658 22.0285ZM66.0289 0.439003C65.0636 0.439003 64.3175 1.18498 64.3175 2.10647V28.8738C64.3175 29.7953 65.0636 30.5414 66.0289 30.5414H67.5208V30.8485H59.008V30.5414H60.5437C61.4652 30.5414 62.2113 29.7953 62.2113 28.8738V2.10647C62.2113 1.18498 61.4652 0.439003 60.5437 0.439003H59.008V0.131836H67.5208V0.439003H66.0289Z" fill="white"/>
<path d="M78.5115 0.0338566C78.519 0.0112854 78.5417 0 78.5792 0C78.6243 0 78.6506 0.0112854 78.6581 0.0338566L81.6263 7.18883H80.8363L78.2633 0.959263L78.5792 0.575558L75.8819 7.18883H75.5886L78.5115 0.0338566ZM74.9792 8.92678C74.9792 8.31737 74.949 7.8321 74.8888 7.47096C74.8662 7.32801 74.855 7.18883 74.855 7.05341C74.855 6.99322 74.8625 6.95936 74.8776 6.95184C74.8925 6.93679 74.9264 6.92926 74.9792 6.92926H82.1341C82.1943 6.92926 82.2281 6.93679 82.2357 6.95184C82.2508 6.95936 82.2583 6.99322 82.2583 7.05341C82.2583 7.09101 82.2508 7.19258 82.2357 7.35811C82.183 7.77944 82.1567 8.30234 82.1567 8.92678C82.1567 8.96441 82.1341 8.98322 82.089 8.98322C82.0437 8.98322 82.0213 8.96441 82.0213 8.92678C82.0213 8.3249 81.8745 7.88476 81.5812 7.60639C81.2877 7.32801 80.81 7.18883 80.1478 7.18883H76.6944C75.6337 7.18883 75.1032 7.76814 75.1032 8.92678C75.1032 8.96441 75.0808 8.98322 75.0355 8.98322C74.998 8.98322 74.9792 8.96441 74.9792 8.92678ZM86.5607 7.32426C85.8609 7.32426 85.2366 7.1625 84.6874 6.83899C84.1457 6.50795 83.7243 6.06405 83.4233 5.50729C83.13 4.94303 82.9832 4.32985 82.9832 3.66777C82.9832 2.89283 83.179 2.23075 83.5701 1.68153C83.9613 1.12478 84.4616 0.707221 85.071 0.428846C85.688 0.150473 86.3162 0.0112852 86.9558 0.0112852C87.6704 0.0112852 88.2986 0.180567 88.8403 0.51913C89.382 0.85017 89.7958 1.2903 90.0818 1.83953C90.3753 2.38876 90.5219 2.97184 90.5219 3.58878C90.5219 4.27343 90.3414 4.90165 89.9802 5.47344C89.619 6.04524 89.1338 6.49665 88.5244 6.82769C87.9225 7.15873 87.268 7.32426 86.5607 7.32426ZM86.9558 7.08726C87.4673 7.08726 87.9262 6.96311 88.3325 6.71484C88.7463 6.46657 89.07 6.10543 89.3031 5.63144C89.544 5.14992 89.6643 4.57437 89.6643 3.90477C89.6643 3.19753 89.5325 2.56932 89.2692 2.02009C89.0059 1.47087 88.6335 1.04202 88.152 0.733553C87.678 0.425085 87.1212 0.270851 86.4818 0.270851C85.6541 0.270851 85.0072 0.537939 84.5405 1.07212C84.0741 1.6063 83.841 2.33985 83.841 3.27277C83.841 3.98 83.9725 4.62703 84.2358 5.21388C84.4994 5.7932 84.8679 6.25213 85.3419 6.5907C85.8159 6.92173 86.3539 7.08726 86.9558 7.08726ZM92.5266 0.39499L92.7974 0.417561L92.6844 5.95872C92.6769 6.35747 92.7446 6.6396 92.8876 6.80513C93.0305 6.97064 93.2826 7.05341 93.6438 7.05341C93.6587 7.05341 93.6663 7.07598 93.6663 7.12112C93.6663 7.16625 93.6587 7.18883 93.6438 7.18883C93.4331 7.18883 93.2714 7.18508 93.1584 7.17755L92.549 7.16625L91.9622 7.17755C91.857 7.18508 91.7065 7.18883 91.5109 7.18883C91.4958 7.18883 91.4882 7.16625 91.4882 7.12112C91.4882 7.07598 91.4958 7.05341 91.5109 7.05341C91.8268 7.05341 92.0526 6.97064 92.188 6.80513C92.331 6.63208 92.406 6.34995 92.4136 5.95872L92.5266 0.39499ZM100.234 7.05341C100.257 7.05341 100.268 7.07598 100.268 7.12112C100.268 7.16625 100.257 7.18883 100.234 7.18883C100.001 7.18883 99.8169 7.18508 99.6815 7.17755L98.9028 7.16625L98.1806 7.17755C98.06 7.18508 97.8908 7.18883 97.6727 7.18883C97.6576 7.18883 97.6501 7.16625 97.6501 7.12112C97.6501 7.07598 97.6576 7.05341 97.6727 7.05341C97.9285 7.05341 98.1165 7.0346 98.2369 6.99697C98.3647 6.95184 98.4476 6.8766 98.4853 6.77128C98.5304 6.66593 98.5455 6.50043 98.5304 6.27471L98.316 0.823837L98.6884 0.304707L95.7541 7.10984C95.739 7.13992 95.7091 7.15497 95.6638 7.15497C95.6263 7.15497 95.5924 7.13992 95.5622 7.10984L92.7297 1.07212C92.6018 0.793742 92.4438 0.590606 92.2557 0.462704C92.075 0.334801 91.8531 0.270851 91.5898 0.270851C91.5747 0.270851 91.5672 0.248279 91.5672 0.203138C91.5672 0.157997 91.5747 0.135426 91.5898 0.135426L92.0073 0.14671C92.0826 0.154234 92.188 0.157997 92.3234 0.157997C92.4589 0.157997 92.5716 0.154234 92.662 0.14671C92.7597 0.139187 92.8349 0.135426 92.8876 0.135426C92.9855 0.135426 93.0644 0.173043 93.1246 0.248279C93.1923 0.315992 93.2863 0.473989 93.4068 0.722268L95.9799 6.13928L95.6299 6.72612L98.3837 0.417561C98.4663 0.229471 98.5793 0.135426 98.7223 0.135426C98.7598 0.135426 98.8124 0.139187 98.8801 0.14671C98.9554 0.154234 99.0533 0.157997 99.1736 0.157997L99.7041 0.14671C99.7867 0.139187 99.9109 0.135426 100.077 0.135426C100.091 0.135426 100.099 0.157997 100.099 0.203138C100.099 0.248279 100.091 0.270851 100.077 0.270851C99.6927 0.270851 99.4182 0.327277 99.2526 0.440133C99.0947 0.545463 99.0231 0.748601 99.0382 1.04955L99.264 6.27471C99.2715 6.50795 99.2978 6.67723 99.3429 6.78255C99.3955 6.88788 99.4859 6.95936 99.6138 6.99697C99.7416 7.0346 99.9487 7.05341 100.234 7.05341ZM77.2926 19.1536C76.9616 19.1536 76.6043 19.116 76.2205 19.0407C75.8444 18.9655 75.5472 18.8677 75.329 18.7473C75.2688 18.7097 75.2274 18.6758 75.2048 18.6457C75.1899 18.6156 75.1785 18.563 75.1709 18.4877L75.0355 17.2238C75.0355 17.2012 75.0545 17.1862 75.092 17.1786C75.1371 17.1711 75.1634 17.1786 75.1709 17.2012C75.3441 17.773 75.6524 18.1943 76.0964 18.4652C76.5478 18.736 77.0669 18.8715 77.6538 18.8715C78.5266 18.8715 79.181 18.5931 79.6175 18.0363C80.0538 17.4796 80.272 16.7009 80.272 15.7002C80.272 14.9554 80.1553 14.3008 79.9222 13.7366C79.6889 13.1723 79.3654 12.7397 78.9516 12.4387C78.5378 12.1378 78.0713 11.9873 77.5523 11.9873C77.0481 11.9873 76.5892 12.134 76.1754 12.4274C75.7691 12.7209 75.4418 13.161 75.1935 13.7478C75.186 13.778 75.1634 13.7892 75.1258 13.7817C75.0883 13.7742 75.0693 13.7591 75.0693 13.7366L75.2274 12.4726C75.2425 12.3823 75.2576 12.3221 75.2725 12.292C75.2876 12.2619 75.329 12.2318 75.3967 12.2018C76.1189 11.961 76.8488 11.8406 77.5861 11.8406C78.4062 11.8406 79.0758 12.0024 79.5949 12.3259C80.1215 12.6419 80.5014 13.0632 80.7348 13.5899C80.9754 14.109 81.0958 14.677 81.0958 15.294C81.0958 16.0764 80.9189 16.7611 80.5655 17.3479C80.2194 17.9348 79.7529 18.3824 79.166 18.6909C78.5867 18.9994 77.9622 19.1536 77.2926 19.1536ZM77.0669 15.373C77.0669 15.1397 77.0632 14.9667 77.0556 14.8538L77.0444 14.3008C77.0444 14.2783 77.0669 14.267 77.1121 14.267C77.1572 14.267 77.1799 14.2783 77.1799 14.3008C77.1874 14.6093 77.3039 14.8425 77.5296 15.0005C77.763 15.151 78.1354 15.2262 78.6469 15.2262H80.7121V15.4632H78.613C78.1015 15.4632 77.7364 15.5422 77.5184 15.7002C77.3002 15.8507 77.1911 16.1216 77.1911 16.5128C77.1911 16.5354 77.1684 16.5466 77.1234 16.5466C77.0783 16.5466 77.0556 16.5354 77.0556 16.5128L77.0669 15.373ZM87.5499 19.0182C87.4444 19.0182 87.3504 18.9918 87.2676 18.9392C87.1924 18.879 87.0645 18.7285 86.884 18.4877C86.7035 18.247 86.3798 17.7918 85.9134 17.1222C85.5448 16.5956 85.2776 16.2307 85.1122 16.0275C84.9466 15.8244 84.7773 15.6814 84.6044 15.5987C84.4312 15.5084 84.1981 15.4632 83.9046 15.4632C83.8067 15.4632 83.7166 15.467 83.6338 15.4745C83.551 15.482 83.4796 15.4896 83.4194 15.4971L83.408 15.294C83.882 15.2714 84.2507 15.2601 84.514 15.2601C84.8375 15.2601 85.0857 15.2977 85.2589 15.373C85.4318 15.4407 85.5936 15.5611 85.7441 15.7341C85.9021 15.9071 86.1467 16.2269 86.4777 16.6933L86.6243 16.8965C86.978 17.4006 87.2639 17.7843 87.4822 18.0476C87.7002 18.3034 87.926 18.5066 88.1593 18.657C88.4 18.8 88.6708 18.8752 88.9719 18.8827C88.9867 18.8827 88.9943 18.9053 88.9943 18.9504C88.9943 18.9956 88.9867 19.0182 88.9719 19.0182H87.5499ZM82.0425 19.0182C82.0274 19.0182 82.0199 18.9956 82.0199 18.9504C82.0199 18.9053 82.0274 18.8827 82.0425 18.8827C82.3285 18.8827 82.5392 18.8639 82.6746 18.8263C82.81 18.7887 82.9001 18.7172 82.9454 18.6119C82.998 18.499 83.0244 18.3298 83.0244 18.104V12.8789C83.0244 12.6532 83.0017 12.4876 82.9566 12.3823C82.9116 12.277 82.8212 12.2055 82.6858 12.1679C82.5504 12.1227 82.3397 12.1002 82.0537 12.1002C82.0386 12.1002 82.0313 12.0776 82.0313 12.0325C82.0313 11.9873 82.0386 11.9648 82.0537 11.9648L82.6069 11.976C82.9228 11.9911 83.1785 11.9986 83.3741 11.9986C83.5924 11.9986 83.8669 11.9911 84.1981 11.976L84.7398 11.9648C84.7547 11.9648 84.7622 11.9873 84.7622 12.0325C84.7622 12.0776 84.7547 12.1002 84.7398 12.1002C84.4539 12.1002 84.2432 12.1227 84.1078 12.1679C83.9723 12.213 83.8783 12.292 83.8257 12.4049C83.7804 12.5102 83.758 12.6757 83.758 12.9014V18.104C83.758 18.3298 83.7804 18.499 83.8257 18.6119C83.8783 18.7172 83.9685 18.7887 84.0965 18.8263C84.232 18.8639 84.4463 18.8827 84.7398 18.8827C84.7547 18.8827 84.7622 18.9053 84.7622 18.9504C84.7622 18.9956 84.7547 19.0182 84.7398 19.0182C84.5065 19.0182 84.3221 19.0144 84.1867 19.0069L83.3741 18.9956L82.6069 19.0069C82.4714 19.0144 82.2832 19.0182 82.0425 19.0182ZM84.6721 15.3391L86.0941 13.3529C86.4326 12.8864 86.6019 12.5629 86.6019 12.3823C86.6019 12.2845 86.553 12.213 86.4551 12.1679C86.3649 12.1227 86.2219 12.1002 86.0264 12.1002C86.0113 12.1002 86.0037 12.0776 86.0037 12.0325C86.0037 11.9873 86.0113 11.9648 86.0264 11.9648L86.5116 11.976C86.7975 11.9911 87.0645 11.9986 87.3129 11.9986C87.5687 11.9986 87.832 11.9911 88.1028 11.976L88.5091 11.9648C88.5317 11.9648 88.5429 11.9873 88.5429 12.0325C88.5429 12.0776 88.5317 12.1002 88.5091 12.1002C88.1104 12.1002 87.7604 12.198 87.4595 12.3936C87.1661 12.5817 86.8463 12.9052 86.5003 13.3641L84.8752 15.4407L84.6721 15.3391ZM93.3626 11.8406C93.7238 11.8406 94.0887 11.8745 94.4572 11.9422C94.8259 12.0099 95.1194 12.1077 95.3375 12.2356C95.4052 12.2657 95.4466 12.2995 95.4617 12.3372C95.4843 12.3673 95.4994 12.4237 95.5067 12.5065L95.6309 13.7704C95.6309 13.793 95.6122 13.808 95.5745 13.8156C95.5369 13.8156 95.5143 13.8043 95.5067 13.7817C95.3413 13.2024 95.0328 12.7773 94.5814 12.5065C94.1376 12.2281 93.5845 12.0889 92.9224 12.0889C92.3508 12.0889 91.8503 12.2168 91.4215 12.4726C90.9926 12.7209 90.6616 13.0745 90.4283 13.5334C90.1952 13.9924 90.0785 14.5228 90.0785 15.1247C90.0785 15.8244 90.2215 16.4714 90.5074 17.0658C90.8007 17.6602 91.1921 18.1304 91.681 18.4765C92.1776 18.8225 92.7118 18.9956 93.2836 18.9956C93.8253 18.9956 94.2955 18.8489 94.6942 18.5554C95.0931 18.2545 95.3978 17.7956 95.6083 17.1786C95.6083 17.1561 95.6234 17.1448 95.6536 17.1448C95.676 17.1448 95.695 17.1485 95.7099 17.1561C95.7325 17.1636 95.7437 17.1749 95.7437 17.1899L95.5859 18.4652C95.5708 18.5554 95.552 18.6156 95.5294 18.6457C95.5143 18.6683 95.4729 18.6946 95.4052 18.7247C94.728 19.0106 94.0134 19.1536 93.261 19.1536C92.3581 19.1536 91.602 18.973 90.9926 18.6119C90.3908 18.2432 89.947 17.7768 89.661 17.2125C89.3751 16.6482 89.2321 16.0539 89.2321 15.4294C89.2321 14.7372 89.424 14.1165 89.8077 13.5673C90.1913 13.0181 90.6991 12.593 91.3312 12.292C91.9633 11.9911 92.6404 11.8406 93.3626 11.8406ZM104.185 18.8827C104.207 18.8827 104.219 18.9053 104.219 18.9504C104.219 18.9956 104.207 19.0182 104.185 19.0182C103.944 19.0182 103.756 19.0144 103.62 19.0069L102.853 18.9956L102.052 19.0069C101.916 19.0144 101.732 19.0182 101.499 19.0182C101.476 19.0182 101.465 18.9956 101.465 18.9504C101.465 18.9053 101.476 18.8827 101.499 18.8827C101.785 18.8827 101.995 18.8639 102.131 18.8263C102.266 18.7887 102.357 18.7172 102.402 18.6119C102.447 18.499 102.469 18.3298 102.469 18.104V12.924C102.469 12.6682 102.454 12.4989 102.424 12.4162C102.402 12.3334 102.338 12.2807 102.232 12.2582C102.127 12.2356 101.913 12.2243 101.589 12.2243H99.2756C98.937 12.2243 98.7113 12.2356 98.5985 12.2582C98.4855 12.2807 98.4141 12.3372 98.3839 12.4274C98.3539 12.5102 98.3388 12.6757 98.3388 12.924V18.104C98.3388 18.3298 98.3615 18.499 98.4066 18.6119C98.4592 18.7172 98.5495 18.7887 98.6774 18.8263C98.8128 18.8639 99.0272 18.8827 99.3207 18.8827C99.3358 18.8827 99.3433 18.9053 99.3433 18.9504C99.3433 18.9956 99.3358 19.0182 99.3207 19.0182C99.0874 19.0182 98.9032 19.0144 98.7678 19.0069L97.9552 18.9956L97.1877 19.0069C97.0523 19.0144 96.8643 19.0182 96.6234 19.0182C96.6085 19.0182 96.601 18.9956 96.601 18.9504C96.601 18.9053 96.6085 18.8827 96.6234 18.8827C96.9093 18.8827 97.12 18.8639 97.2554 18.8263C97.3984 18.7887 97.4924 18.7172 97.5375 18.6119C97.5903 18.499 97.6166 18.3298 97.6166 18.104V13.0143C97.6166 12.7811 97.5903 12.6005 97.5375 12.4726C97.4924 12.3447 97.3984 12.2506 97.2554 12.1905C97.1125 12.1303 96.9057 12.1002 96.6348 12.1002C96.6197 12.1002 96.6122 12.0776 96.6122 12.0325C96.6122 11.9873 96.6197 11.9648 96.6348 11.9648C96.8906 11.9648 97.1351 11.9685 97.3682 11.976C98.3464 11.9911 99.3733 11.9986 100.449 11.9986C101.427 11.9986 102.548 11.9873 103.812 11.9648H104.185C104.207 11.9648 104.219 11.9873 104.219 12.0325C104.219 12.0776 104.207 12.1002 104.185 12.1002C103.914 12.1002 103.707 12.1303 103.564 12.1905C103.421 12.2506 103.323 12.3447 103.271 12.4726C103.225 12.6005 103.203 12.7811 103.203 13.0143V18.104C103.203 18.3298 103.225 18.499 103.271 18.6119C103.323 18.7172 103.417 18.7887 103.553 18.8263C103.688 18.8639 103.899 18.8827 104.185 18.8827ZM105.079 19.0182C105.064 19.0182 105.056 18.9956 105.056 18.9504C105.056 18.9053 105.064 18.8827 105.079 18.8827C105.364 18.8827 105.571 18.8639 105.699 18.8263C105.835 18.7887 105.925 18.7172 105.97 18.6119C106.023 18.499 106.049 18.3298 106.049 18.104V12.8789C106.049 12.6532 106.023 12.4876 105.97 12.3823C105.925 12.277 105.835 12.2055 105.699 12.1679C105.571 12.1227 105.364 12.1002 105.079 12.1002C105.064 12.1002 105.056 12.0776 105.056 12.0325C105.056 11.9873 105.064 11.9648 105.079 11.9648H109.615C109.683 11.9648 109.717 11.9986 109.717 12.0663L109.739 13.4544C109.739 13.477 109.717 13.492 109.672 13.4996C109.634 13.4996 109.615 13.4883 109.615 13.4657C109.593 13.067 109.472 12.7585 109.254 12.5403C109.036 12.3146 108.746 12.2018 108.385 12.2018H107.697C107.434 12.2018 107.238 12.2243 107.11 12.2695C106.982 12.3071 106.892 12.3748 106.839 12.4726C106.794 12.5704 106.772 12.7246 106.772 12.9353V18.0589C106.772 18.262 106.794 18.4163 106.839 18.5216C106.892 18.6194 106.978 18.6871 107.099 18.7247C107.219 18.7624 107.407 18.7812 107.663 18.7812H108.566C108.927 18.7812 109.228 18.6533 109.469 18.3975C109.709 18.1416 109.871 17.7881 109.954 17.3366C109.954 17.3216 109.969 17.3141 109.999 17.3141C110.022 17.3141 110.041 17.3216 110.056 17.3366C110.078 17.3441 110.089 17.3517 110.089 17.3592C110.022 17.8332 109.988 18.3298 109.988 18.8489C109.988 18.9091 109.973 18.9542 109.943 18.9843C109.92 19.0069 109.875 19.0182 109.807 19.0182H105.079ZM109.175 16.3886C109.175 16.0576 109.093 15.8206 108.927 15.6777C108.769 15.5347 108.502 15.4632 108.126 15.4632H106.433V15.2262H108.16C108.521 15.2262 108.777 15.1661 108.927 15.0457C109.085 14.9253 109.164 14.7222 109.164 14.4363C109.164 14.4212 109.187 14.4137 109.232 14.4137C109.277 14.4137 109.299 14.4212 109.299 14.4363L109.288 15.3504C109.288 15.5686 109.292 15.7341 109.299 15.8469L109.311 16.3886C109.311 16.4037 109.288 16.4112 109.243 16.4112C109.198 16.4112 109.175 16.4037 109.175 16.3886ZM112.822 18.0589C112.822 18.2997 112.852 18.4765 112.912 18.5893C112.98 18.6946 113.104 18.7699 113.284 18.815C113.472 18.8602 113.766 18.8827 114.165 18.8827C114.187 18.8827 114.199 18.9053 114.199 18.9504C114.199 18.9956 114.187 19.0182 114.165 19.0182C113.856 19.0182 113.615 19.0144 113.442 19.0069L112.461 18.9956L111.704 19.0069C111.562 19.0144 111.37 19.0182 111.129 19.0182C111.114 19.0182 111.106 18.9956 111.106 18.9504C111.106 18.9053 111.114 18.8827 111.129 18.8827C111.415 18.8827 111.622 18.8639 111.75 18.8263C111.885 18.7887 111.975 18.7172 112.02 18.6119C112.066 18.499 112.088 18.3298 112.088 18.104V12.8789C112.088 12.6532 112.066 12.4876 112.02 12.3823C111.975 12.277 111.885 12.2055 111.75 12.1679C111.622 12.1227 111.415 12.1002 111.129 12.1002C111.114 12.1002 111.106 12.0776 111.106 12.0325C111.106 11.9873 111.114 11.9648 111.129 11.9648L111.693 11.976C112.009 11.9911 112.261 11.9986 112.449 11.9986C112.637 11.9986 112.848 11.9873 113.081 11.9648C113.172 11.9648 113.315 11.961 113.51 11.9535C113.706 11.9384 113.875 11.9309 114.018 11.9309C114.71 11.9309 115.263 12.0851 115.677 12.3936C116.098 12.7021 116.309 13.1723 116.309 13.8043C116.309 14.3008 116.185 14.7184 115.936 15.057C115.696 15.3955 115.383 15.6476 115 15.8131C114.616 15.9786 114.221 16.0614 113.815 16.0614C113.597 16.0614 113.416 16.0426 113.273 16.0049C113.251 16.0049 113.239 15.9861 113.239 15.9485C113.239 15.926 113.243 15.9034 113.251 15.8808C113.266 15.8582 113.281 15.8507 113.296 15.8582C113.416 15.8883 113.552 15.9034 113.702 15.9034C114.199 15.9034 114.616 15.7416 114.955 15.4181C115.301 15.0946 115.474 14.6281 115.474 14.0187C115.474 13.4243 115.312 12.9579 114.988 12.6193C114.665 12.2732 114.251 12.1002 113.747 12.1002C113.476 12.1002 113.281 12.1152 113.16 12.1453C113.04 12.1754 112.953 12.2469 112.901 12.3597C112.848 12.4651 112.822 12.6456 112.822 12.9014V18.0589ZM123.768 11.9083C123.791 11.8857 123.832 11.8745 123.892 11.8745C124.005 11.8745 124.062 11.9008 124.062 11.9535V18.104C124.062 18.3298 124.084 18.499 124.129 18.6119C124.182 18.7172 124.276 18.7887 124.412 18.8263C124.547 18.8639 124.758 18.8827 125.044 18.8827C125.066 18.8827 125.077 18.9053 125.077 18.9504C125.077 18.9956 125.066 19.0182 125.044 19.0182C124.81 19.0182 124.622 19.0144 124.479 19.0069L123.701 18.9956L122.877 19.0069C122.749 19.0144 122.572 19.0182 122.346 19.0182C122.324 19.0182 122.312 18.9956 122.312 18.9504C122.312 18.9053 122.324 18.8827 122.346 18.8827C122.64 18.8827 122.854 18.8639 122.99 18.8263C123.125 18.7887 123.215 18.7172 123.26 18.6119C123.305 18.5066 123.328 18.3373 123.328 18.104V12.5855L123.542 12.6306L118.475 19.1197C118.453 19.1498 118.408 19.1649 118.34 19.1649C118.227 19.1649 118.171 19.1385 118.171 19.0859V12.8789C118.171 12.6532 118.144 12.4876 118.092 12.3823C118.047 12.277 117.952 12.2055 117.81 12.1679C117.674 12.1227 117.463 12.1002 117.177 12.1002C117.163 12.1002 117.155 12.0776 117.155 12.0325C117.155 11.9873 117.163 11.9648 117.177 11.9648L117.764 11.976C118.08 11.9911 118.336 11.9986 118.532 11.9986C118.75 11.9986 119.025 11.9911 119.356 11.976L119.886 11.9648C119.901 11.9648 119.909 11.9873 119.909 12.0325C119.909 12.0776 119.901 12.1002 119.886 12.1002C119.593 12.1002 119.378 12.1227 119.243 12.1679C119.107 12.2055 119.013 12.277 118.961 12.3823C118.916 12.4876 118.893 12.6532 118.893 12.8789V18.4652L118.69 18.42L123.768 11.9083ZM126.912 12.2243L127.183 12.2469L127.07 17.788C127.062 18.1868 127.13 18.4689 127.273 18.6345C127.416 18.8 127.668 18.8827 128.029 18.8827C128.044 18.8827 128.052 18.9053 128.052 18.9504C128.052 18.9956 128.044 19.0182 128.029 19.0182C127.818 19.0182 127.657 19.0144 127.544 19.0069L126.934 18.9956L126.348 19.0069C126.242 19.0144 126.092 19.0182 125.896 19.0182C125.881 19.0182 125.874 18.9956 125.874 18.9504C125.874 18.9053 125.881 18.8827 125.896 18.8827C126.212 18.8827 126.438 18.8 126.573 18.6345C126.716 18.4614 126.791 18.1793 126.799 17.788L126.912 12.2243ZM134.62 18.8827C134.642 18.8827 134.654 18.9053 134.654 18.9504C134.654 18.9956 134.642 19.0182 134.62 19.0182C134.386 19.0182 134.202 19.0144 134.067 19.0069L133.288 18.9956L132.566 19.0069C132.445 19.0144 132.276 19.0182 132.058 19.0182C132.043 19.0182 132.035 18.9956 132.035 18.9504C132.035 18.9053 132.043 18.8827 132.058 18.8827C132.314 18.8827 132.502 18.8639 132.622 18.8263C132.75 18.7812 132.833 18.7059 132.87 18.6006C132.916 18.4953 132.931 18.3298 132.916 18.104L132.701 12.6532L133.074 12.134L130.14 18.9392C130.124 18.9692 130.094 18.9843 130.049 18.9843C130.012 18.9843 129.978 18.9692 129.948 18.9392L127.115 12.9014C126.987 12.6231 126.829 12.4199 126.641 12.292C126.46 12.1641 126.239 12.1002 125.975 12.1002C125.96 12.1002 125.953 12.0776 125.953 12.0325C125.953 11.9873 125.96 11.9648 125.975 11.9648L126.393 11.976C126.468 11.9836 126.573 11.9873 126.709 11.9873C126.844 11.9873 126.957 11.9836 127.047 11.976C127.145 11.9685 127.22 11.9648 127.273 11.9648C127.371 11.9648 127.45 12.0024 127.51 12.0776C127.578 12.1453 127.672 12.3033 127.792 12.5516L130.365 17.9686L130.015 18.5554L132.769 12.2469C132.852 12.0588 132.965 11.9648 133.107 11.9648C133.145 11.9648 133.198 11.9685 133.266 11.976C133.341 11.9836 133.438 11.9873 133.559 11.9873L134.089 11.976C134.172 11.9685 134.296 11.9648 134.462 11.9648C134.477 11.9648 134.484 11.9873 134.484 12.0325C134.484 12.0776 134.477 12.1002 134.462 12.1002C134.078 12.1002 133.804 12.1566 133.638 12.2695C133.48 12.3748 133.409 12.5779 133.424 12.8789L133.649 18.104C133.657 18.3373 133.683 18.5066 133.728 18.6119C133.781 18.7172 133.871 18.7887 133.999 18.8263C134.127 18.8639 134.334 18.8827 134.62 18.8827ZM135.364 19.0182C135.349 19.0182 135.342 18.9956 135.342 18.9504C135.342 18.9053 135.349 18.8827 135.364 18.8827C135.65 18.8827 135.857 18.8639 135.985 18.8263C136.12 18.7887 136.211 18.7172 136.256 18.6119C136.308 18.499 136.335 18.3298 136.335 18.104V12.8789C136.335 12.6532 136.308 12.4876 136.256 12.3823C136.211 12.277 136.12 12.2055 135.985 12.1679C135.857 12.1227 135.65 12.1002 135.364 12.1002C135.349 12.1002 135.342 12.0776 135.342 12.0325C135.342 11.9873 135.349 11.9648 135.364 11.9648H139.901C139.969 11.9648 140.003 11.9986 140.003 12.0663L140.025 13.4544C140.025 13.477 140.003 13.492 139.957 13.4996C139.92 13.4996 139.901 13.4883 139.901 13.4657C139.878 13.067 139.758 12.7585 139.54 12.5403C139.322 12.3146 139.032 12.2018 138.671 12.2018H137.982C137.719 12.2018 137.523 12.2243 137.396 12.2695C137.268 12.3071 137.177 12.3748 137.125 12.4726C137.08 12.5704 137.057 12.7246 137.057 12.9353V18.0589C137.057 18.262 137.08 18.4163 137.125 18.5216C137.177 18.6194 137.264 18.6871 137.384 18.7247C137.505 18.7624 137.693 18.7812 137.949 18.7812H138.851C139.213 18.7812 139.513 18.6533 139.754 18.3975C139.995 18.1416 140.157 17.7881 140.24 17.3366C140.24 17.3216 140.255 17.3141 140.285 17.3141C140.307 17.3141 140.326 17.3216 140.341 17.3366C140.364 17.3441 140.375 17.3517 140.375 17.3592C140.307 17.8332 140.273 18.3298 140.273 18.8489C140.273 18.9091 140.258 18.9542 140.228 18.9843C140.206 19.0069 140.161 19.0182 140.093 19.0182H135.364ZM139.461 16.3886C139.461 16.0576 139.378 15.8206 139.213 15.6777C139.055 15.5347 138.787 15.4632 138.411 15.4632H136.718V15.2262H138.445C138.806 15.2262 139.062 15.1661 139.213 15.0457C139.37 14.9253 139.45 14.7222 139.45 14.4363C139.45 14.4212 139.472 14.4137 139.517 14.4137C139.562 14.4137 139.585 14.4212 139.585 14.4363L139.574 15.3504C139.574 15.5686 139.578 15.7341 139.585 15.8469L139.596 16.3886C139.596 16.4037 139.574 16.4112 139.529 16.4112C139.483 16.4112 139.461 16.4037 139.461 16.3886ZM147.384 12.9014C147.384 12.6757 147.358 12.5102 147.306 12.4049C147.26 12.292 147.17 12.213 147.035 12.1679C146.899 12.1227 146.685 12.1002 146.391 12.1002C146.369 12.1002 146.358 12.0776 146.358 12.0325C146.358 11.9873 146.369 11.9648 146.391 11.9648L146.933 11.976C147.264 11.9911 147.539 11.9986 147.757 11.9986C147.96 11.9986 148.22 11.9911 148.536 11.976L149.088 11.9648C149.111 11.9648 149.122 11.9873 149.122 12.0325C149.122 12.0776 149.111 12.1002 149.088 12.1002C148.803 12.1002 148.592 12.1227 148.457 12.1679C148.321 12.2055 148.227 12.277 148.174 12.3823C148.129 12.4876 148.107 12.6532 148.107 12.8789V18.104C148.107 18.3298 148.129 18.499 148.174 18.6119C148.227 18.7172 148.321 18.7887 148.457 18.8263C148.592 18.8639 148.803 18.8827 149.088 18.8827C149.111 18.8827 149.122 18.9053 149.122 18.9504C149.122 18.9956 149.111 19.0182 149.088 19.0182C148.855 19.0182 148.671 19.0144 148.536 19.0069L147.757 18.9956L146.933 19.0069C146.798 19.0144 146.617 19.0182 146.391 19.0182C146.369 19.0182 146.358 18.9956 146.358 18.9504C146.358 18.9053 146.369 18.8827 146.391 18.8827C146.685 18.8827 146.899 18.8639 147.035 18.8263C147.17 18.7887 147.26 18.7172 147.306 18.6119C147.358 18.499 147.384 18.3298 147.384 18.104V12.9014ZM142.656 15.2262H147.7V15.4632H142.656V15.2262ZM142.329 12.8789C142.329 12.6532 142.302 12.4876 142.25 12.3823C142.204 12.277 142.114 12.2055 141.979 12.1679C141.843 12.1227 141.633 12.1002 141.347 12.1002C141.332 12.1002 141.324 12.0776 141.324 12.0325C141.324 11.9873 141.332 11.9648 141.347 11.9648L141.922 11.976C142.238 11.9911 142.49 11.9986 142.678 11.9986C142.897 11.9986 143.171 11.9911 143.502 11.976L144.044 11.9648C144.059 11.9648 144.067 11.9873 144.067 12.0325C144.067 12.0776 144.059 12.1002 144.044 12.1002C143.758 12.1002 143.544 12.1227 143.401 12.1679C143.265 12.213 143.171 12.292 143.119 12.4049C143.073 12.5102 143.051 12.6757 143.051 12.9014V18.104C143.051 18.3298 143.073 18.499 143.119 18.6119C143.171 18.7172 143.265 18.7887 143.401 18.8263C143.536 18.8639 143.751 18.8827 144.044 18.8827C144.059 18.8827 144.067 18.9053 144.067 18.9504C144.067 18.9956 144.059 19.0182 144.044 19.0182C143.811 19.0182 143.626 19.0144 143.491 19.0069L142.678 18.9956L141.9 19.0069C141.764 19.0144 141.576 19.0182 141.335 19.0182C141.32 19.0182 141.313 18.9956 141.313 18.9504C141.313 18.9053 141.32 18.8827 141.335 18.8827C141.621 18.8827 141.832 18.8639 141.967 18.8263C142.11 18.7887 142.204 18.7172 142.25 18.6119C142.302 18.499 142.329 18.3298 142.329 18.104V12.8789ZM151.625 12.1679C151.159 12.1679 150.805 12.2883 150.565 12.529C150.331 12.7698 150.162 13.1798 150.057 13.7591C150.057 13.7742 150.034 13.7817 149.989 13.7817C149.951 13.7817 149.933 13.7742 149.933 13.7591C149.963 13.4883 149.997 13.1347 150.034 12.6983C150.072 12.2619 150.091 11.9347 150.091 11.7165C150.091 11.6789 150.109 11.6601 150.147 11.6601C150.192 11.6601 150.215 11.6789 150.215 11.7165C150.215 11.882 150.418 11.9648 150.824 11.9648C151.471 11.9873 152.227 11.9986 153.093 11.9986C153.536 11.9986 154.007 11.9911 154.503 11.976L155.271 11.9648C155.541 11.9648 155.741 11.9459 155.869 11.9083C156.004 11.8707 156.091 11.7955 156.128 11.6826C156.136 11.6525 156.158 11.6375 156.196 11.6375C156.234 11.6375 156.252 11.6525 156.252 11.6826C156.23 11.9008 156.207 12.2318 156.185 12.6757C156.162 13.1196 156.151 13.4808 156.151 13.7591C156.151 13.7742 156.128 13.7817 156.083 13.7817C156.038 13.7817 156.015 13.7742 156.015 13.7591C155.993 13.1723 155.872 12.7623 155.654 12.529C155.436 12.2883 155.075 12.1679 154.571 12.1679C154.232 12.1679 153.992 12.1829 153.849 12.213C153.706 12.2431 153.608 12.3071 153.555 12.4049C153.502 12.5027 153.476 12.6682 153.476 12.9014V18.104C153.476 18.3373 153.502 18.5066 153.555 18.6119C153.608 18.7172 153.709 18.7887 153.86 18.8263C154.01 18.8639 154.247 18.8827 154.571 18.8827C154.593 18.8827 154.605 18.9053 154.605 18.9504C154.605 18.9956 154.593 19.0182 154.571 19.0182C154.323 19.0182 154.123 19.0144 153.973 19.0069L153.093 18.9956L152.246 19.0069C152.096 19.0144 151.889 19.0182 151.625 19.0182C151.61 19.0182 151.603 18.9956 151.603 18.9504C151.603 18.9053 151.61 18.8827 151.625 18.8827C151.949 18.8827 152.186 18.8639 152.336 18.8263C152.487 18.7887 152.588 18.7172 152.641 18.6119C152.701 18.499 152.731 18.3298 152.731 18.104V12.8789C152.731 12.6456 152.705 12.4839 152.652 12.3936C152.6 12.2958 152.502 12.2356 152.359 12.213C152.216 12.1829 151.971 12.1679 151.625 12.1679ZM158.165 15.689H161.156L161.235 15.9147H158.052L158.165 15.689ZM163.751 18.8827C163.781 18.8827 163.796 18.9053 163.796 18.9504C163.796 18.9956 163.781 19.0182 163.751 19.0182C163.608 19.0182 163.386 19.0106 163.085 18.9956C162.785 18.9805 162.566 18.973 162.431 18.973C162.265 18.973 162.055 18.9805 161.799 18.9956C161.558 19.0106 161.374 19.0182 161.246 19.0182C161.216 19.0182 161.201 18.9956 161.201 18.9504C161.201 18.9053 161.216 18.8827 161.246 18.8827C161.532 18.8827 161.735 18.8564 161.855 18.8037C161.983 18.7511 162.047 18.657 162.047 18.5216C162.047 18.4087 162.002 18.2507 161.912 18.0476L159.407 12.7547L159.689 12.4049L157.499 17.5849C157.394 17.8407 157.341 18.0514 157.341 18.2169C157.341 18.6608 157.71 18.8827 158.447 18.8827C158.485 18.8827 158.504 18.9053 158.504 18.9504C158.504 18.9956 158.485 19.0182 158.447 19.0182C158.312 19.0182 158.116 19.0106 157.86 18.9956C157.574 18.9805 157.326 18.973 157.116 18.973C156.92 18.973 156.694 18.9805 156.438 18.9956C156.213 19.0106 156.025 19.0182 155.874 19.0182C155.837 19.0182 155.818 18.9956 155.818 18.9504C155.818 18.9053 155.837 18.8827 155.874 18.8827C156.085 18.8827 156.262 18.8451 156.405 18.7699C156.555 18.6871 156.694 18.5479 156.822 18.3523C156.957 18.1492 157.104 17.8595 157.262 17.4833L159.644 11.8632C159.658 11.8406 159.685 11.8293 159.722 11.8293C159.76 11.8293 159.783 11.8406 159.79 11.8632L162.454 17.472C162.709 18.0288 162.928 18.405 163.108 18.6006C163.289 18.7887 163.503 18.8827 163.751 18.8827ZM163.798 19.0182C163.761 19.0182 163.742 18.9956 163.742 18.9504C163.742 18.9053 163.761 18.8827 163.798 18.8827C164.009 18.8827 164.186 18.8451 164.329 18.7699C164.479 18.6871 164.618 18.5479 164.746 18.3523C164.882 18.1492 165.028 17.8595 165.186 17.4833L167.568 11.8632C167.583 11.8406 167.609 11.8293 167.646 11.8293C167.684 11.8293 167.707 11.8406 167.714 11.8632L170.378 17.472C170.633 18.0288 170.852 18.405 171.032 18.6006C171.213 18.7887 171.427 18.8827 171.675 18.8827C171.706 18.8827 171.721 18.9053 171.721 18.9504C171.721 18.9956 171.706 19.0182 171.675 19.0182C171.532 19.0182 171.311 19.0106 171.01 18.9956C170.709 18.9805 170.49 18.973 170.355 18.973C170.19 18.973 169.979 18.9805 169.723 18.9956C169.482 19.0106 169.298 19.0182 169.17 19.0182C169.14 19.0182 169.125 18.9956 169.125 18.9504C169.125 18.9053 169.14 18.8827 169.17 18.8827C169.456 18.8827 169.659 18.8564 169.779 18.8037C169.907 18.7511 169.971 18.657 169.971 18.5216C169.971 18.4087 169.926 18.2507 169.836 18.0476L167.331 12.7547L167.613 12.4049L165.423 17.5849C165.318 17.8407 165.265 18.0514 165.265 18.2169C165.265 18.6608 165.634 18.8827 166.371 18.8827C166.409 18.8827 166.428 18.9053 166.428 18.9504C166.428 18.9956 166.409 19.0182 166.371 19.0182C166.236 19.0182 166.04 19.0106 165.784 18.9956C165.498 18.9805 165.25 18.973 165.04 18.973C164.844 18.973 164.618 18.9805 164.362 18.9956C164.137 19.0106 163.949 19.0182 163.798 19.0182ZM175.164 19.0633C174.969 19.0633 174.735 19.052 174.465 19.0294C174.359 19.0219 174.224 19.0144 174.058 19.0069C173.9 18.9994 173.723 18.9956 173.528 18.9956L172.783 19.0069C172.64 19.0144 172.444 19.0182 172.196 19.0182C172.181 19.0182 172.174 18.9956 172.174 18.9504C172.174 18.9053 172.181 18.8827 172.196 18.8827C172.49 18.8752 172.7 18.8526 172.828 18.815C172.964 18.7774 173.058 18.7059 173.11 18.6006C173.163 18.4953 173.189 18.3298 173.189 18.104V12.8789C173.189 12.6532 173.163 12.4876 173.11 12.3823C173.065 12.277 172.975 12.2055 172.84 12.1679C172.712 12.1303 172.505 12.1077 172.219 12.1002C172.196 12.1002 172.185 12.0776 172.185 12.0325C172.185 11.9873 172.196 11.9648 172.219 11.9648L172.76 11.976C173.061 11.9911 173.317 11.9986 173.528 11.9986C173.746 11.9986 174.021 11.9911 174.352 11.976L174.893 11.9648C174.916 11.9648 174.927 11.9873 174.927 12.0325C174.927 12.0776 174.916 12.1002 174.893 12.1002C174.608 12.1077 174.397 12.1303 174.262 12.1679C174.126 12.2055 174.032 12.2807 173.979 12.3936C173.934 12.4989 173.912 12.6682 173.912 12.9014V18.104C173.912 18.3674 173.979 18.5592 174.115 18.6796C174.25 18.8 174.525 18.8602 174.939 18.8602C175.548 18.8602 175.984 18.7247 176.248 18.4539C176.518 18.1755 176.654 17.7429 176.654 17.1561C176.654 16.4789 176.504 15.9937 176.203 15.7002C175.901 15.4068 175.465 15.2601 174.893 15.2601C174.51 15.2601 174.081 15.3241 173.607 15.452L173.584 15.2262C174.164 15.0983 174.694 15.0344 175.176 15.0344C176.688 15.0344 177.444 15.6513 177.444 16.8852C177.444 17.3141 177.346 17.694 177.151 18.025C176.962 18.3561 176.695 18.6119 176.349 18.7924C176.003 18.973 175.608 19.0633 175.164 19.0633ZM184.294 12.9014C184.294 12.6757 184.267 12.5102 184.215 12.4049C184.169 12.292 184.079 12.213 183.944 12.1679C183.808 12.1227 183.594 12.1002 183.301 12.1002C183.278 12.1002 183.267 12.0776 183.267 12.0325C183.267 11.9873 183.278 11.9648 183.301 11.9648L183.842 11.976C184.173 11.9911 184.448 11.9986 184.666 11.9986C184.869 11.9986 185.129 11.9911 185.445 11.976L185.998 11.9648C186.02 11.9648 186.031 11.9873 186.031 12.0325C186.031 12.0776 186.02 12.1002 185.998 12.1002C185.712 12.1002 185.501 12.1227 185.366 12.1679C185.23 12.2055 185.136 12.277 185.084 12.3823C185.038 12.4876 185.016 12.6532 185.016 12.8789V18.104C185.016 18.3298 185.038 18.499 185.084 18.6119C185.136 18.7172 185.23 18.7887 185.366 18.8263C185.501 18.8639 185.712 18.8827 185.998 18.8827C186.02 18.8827 186.031 18.9053 186.031 18.9504C186.031 18.9956 186.02 19.0182 185.998 19.0182C185.765 19.0182 185.58 19.0144 185.445 19.0069L184.666 18.9956L183.842 19.0069C183.707 19.0144 183.526 19.0182 183.301 19.0182C183.278 19.0182 183.267 18.9956 183.267 18.9504C183.267 18.9053 183.278 18.8827 183.301 18.8827C183.594 18.8827 183.808 18.8639 183.944 18.8263C184.079 18.7887 184.169 18.7172 184.215 18.6119C184.267 18.499 184.294 18.3298 184.294 18.104V12.9014ZM179.565 15.2262H184.61V15.4632H179.565V15.2262ZM179.238 12.8789C179.238 12.6532 179.211 12.4876 179.159 12.3823C179.114 12.277 179.023 12.2055 178.888 12.1679C178.752 12.1227 178.542 12.1002 178.256 12.1002C178.241 12.1002 178.233 12.0776 178.233 12.0325C178.233 11.9873 178.241 11.9648 178.256 11.9648L178.831 11.976C179.147 11.9911 179.399 11.9986 179.588 11.9986C179.806 11.9986 180.08 11.9911 180.411 11.976L180.953 11.9648C180.968 11.9648 180.976 11.9873 180.976 12.0325C180.976 12.0776 180.968 12.1002 180.953 12.1002C180.667 12.1002 180.453 12.1227 180.31 12.1679C180.174 12.213 180.08 12.292 180.028 12.4049C179.983 12.5102 179.96 12.6757 179.96 12.9014V18.104C179.96 18.3298 179.983 18.499 180.028 18.6119C180.08 18.7172 180.174 18.7887 180.31 18.8263C180.445 18.8639 180.66 18.8827 180.953 18.8827C180.968 18.8827 180.976 18.9053 180.976 18.9504C180.976 18.9956 180.968 19.0182 180.953 19.0182C180.72 19.0182 180.536 19.0144 180.4 19.0069L179.588 18.9956L178.809 19.0069C178.673 19.0144 178.485 19.0182 178.245 19.0182C178.23 19.0182 178.222 18.9956 178.222 18.9504C178.222 18.9053 178.23 18.8827 178.245 18.8827C178.53 18.8827 178.741 18.8639 178.877 18.8263C179.02 18.7887 179.114 18.7172 179.159 18.6119C179.211 18.499 179.238 18.3298 179.238 18.104V12.8789ZM190.543 19.1536C189.844 19.1536 189.219 18.9918 188.67 18.6683C188.128 18.3373 187.707 17.8934 187.406 17.3366C187.113 16.7724 186.966 16.1592 186.966 15.4971C186.966 14.7222 187.161 14.0601 187.553 13.5109C187.944 12.9541 188.444 12.5365 189.054 12.2582C189.671 11.9798 190.299 11.8406 190.938 11.8406C191.653 11.8406 192.281 12.0099 192.823 12.3485C193.365 12.6795 193.778 13.1196 194.064 13.6689C194.358 14.2181 194.505 14.8012 194.505 15.4181C194.505 16.1028 194.324 16.731 193.963 17.3028C193.602 17.8746 193.116 18.326 192.507 18.657C191.905 18.9881 191.251 19.1536 190.543 19.1536ZM190.938 18.9166C191.45 18.9166 191.909 18.7924 192.315 18.5442C192.729 18.2959 193.052 17.9348 193.286 17.4608C193.526 16.9793 193.647 16.4037 193.647 15.7341C193.647 15.0269 193.515 14.3986 193.252 13.8494C192.989 13.3002 192.616 12.8714 192.135 12.5629C191.661 12.2544 191.104 12.1002 190.464 12.1002C189.637 12.1002 188.99 12.3673 188.523 12.9014C188.057 13.4356 187.824 14.1692 187.824 15.1021C187.824 15.8093 187.955 16.4564 188.218 17.0432C188.482 17.6225 188.851 18.0815 189.325 18.42C189.798 18.7511 190.337 18.9166 190.938 18.9166ZM195.527 19.0182C195.512 19.0182 195.505 18.9956 195.505 18.9504C195.505 18.9053 195.512 18.8827 195.527 18.8827C195.813 18.8827 196.024 18.8639 196.159 18.8263C196.295 18.7887 196.385 18.7172 196.43 18.6119C196.483 18.499 196.509 18.3298 196.509 18.104V12.8789C196.509 12.6532 196.483 12.4876 196.43 12.3823C196.385 12.277 196.295 12.2055 196.159 12.1679C196.031 12.1227 195.825 12.1002 195.539 12.1002C195.523 12.1002 195.516 12.0776 195.516 12.0325C195.516 11.9873 195.523 11.9648 195.539 11.9648H200.312C200.388 11.9648 200.425 11.9986 200.425 12.0663L200.448 13.5334C200.448 13.556 200.425 13.571 200.38 13.5786C200.335 13.5786 200.312 13.5673 200.312 13.5447C200.282 13.1234 200.154 12.7961 199.929 12.5629C199.703 12.3221 199.409 12.2018 199.048 12.2018H198.157C197.901 12.2018 197.709 12.2206 197.581 12.2582C197.453 12.2958 197.363 12.3635 197.31 12.4613C197.258 12.5591 197.231 12.7021 197.231 12.8902V18.0589C197.231 18.2997 197.261 18.4765 197.322 18.5893C197.389 18.6946 197.517 18.7699 197.705 18.815C197.901 18.8602 198.202 18.8827 198.608 18.8827C198.631 18.8827 198.642 18.9053 198.642 18.9504C198.642 18.9956 198.631 19.0182 198.608 19.0182C198.3 19.0182 198.059 19.0144 197.886 19.0069L196.87 18.9956L196.103 19.0069C195.968 19.0144 195.776 19.0182 195.527 19.0182ZM204.826 19.1536C204.126 19.1536 203.502 18.9918 202.954 18.6683C202.411 18.3373 201.99 17.8934 201.689 17.3366C201.396 16.7724 201.249 16.1592 201.249 15.4971C201.249 14.7222 201.445 14.0601 201.836 13.5109C202.227 12.9541 202.727 12.5365 203.337 12.2582C203.953 11.9798 204.581 11.8406 205.222 11.8406C205.935 11.8406 206.564 12.0099 207.106 12.3485C207.649 12.6795 208.063 13.1196 208.348 13.6689C208.642 14.2181 208.789 14.8012 208.789 15.4181C208.789 16.1028 208.607 16.731 208.246 17.3028C207.885 17.8746 207.4 18.326 206.79 18.657C206.188 18.9881 205.534 19.1536 204.826 19.1536ZM205.222 18.9166C205.733 18.9166 206.192 18.7924 206.598 18.5442C207.012 18.2959 207.336 17.9348 207.569 17.4608C207.81 16.9793 207.93 16.4037 207.93 15.7341C207.93 15.0269 207.797 14.3986 207.534 13.8494C207.271 13.3002 206.9 12.8714 206.419 12.5629C205.944 12.2544 205.387 12.1002 204.748 12.1002C203.92 12.1002 203.274 12.3673 202.807 12.9014C202.34 13.4356 202.107 14.1692 202.107 15.1021C202.107 15.8093 202.238 16.4564 202.501 17.0432C202.766 17.6225 203.133 18.0815 203.608 18.42C204.081 18.7511 204.62 18.9166 205.222 18.9166ZM81.5359 23.7377C81.5585 23.715 81.5999 23.7038 81.6601 23.7038C81.7729 23.7038 81.8294 23.7301 81.8294 23.7827V29.9334C81.8294 30.1591 81.852 30.3284 81.8971 30.4412C81.9497 30.5464 82.0437 30.618 82.1792 30.6556C82.3146 30.6933 82.5253 30.7121 82.8112 30.7121C82.8339 30.7121 82.8451 30.7347 82.8451 30.7798C82.8451 30.8248 82.8339 30.8475 82.8112 30.8475C82.5779 30.8475 82.3899 30.8438 82.2469 30.8363L81.4682 30.8248L80.6444 30.8363C80.5165 30.8438 80.3397 30.8475 80.1139 30.8475C80.0915 30.8475 80.0801 30.8248 80.0801 30.7798C80.0801 30.7347 80.0915 30.7121 80.1139 30.7121C80.4074 30.7121 80.6218 30.6933 80.7572 30.6556C80.8926 30.618 80.983 30.5464 81.0281 30.4412C81.0733 30.336 81.0958 30.1667 81.0958 29.9334V24.4148L81.3103 24.4599L76.2431 30.9491C76.2205 30.9792 76.1754 30.9941 76.1077 30.9941C75.9949 30.9941 75.9384 30.9678 75.9384 30.9152V24.7083C75.9384 24.4825 75.9121 24.3169 75.8595 24.2116C75.8142 24.1064 75.7202 24.0348 75.5772 23.9973C75.4418 23.952 75.2311 23.9296 74.9453 23.9296C74.9302 23.9296 74.9227 23.9069 74.9227 23.8619C74.9227 23.8166 74.9302 23.7941 74.9453 23.7941L75.5321 23.8054C75.848 23.8205 76.104 23.828 76.2996 23.828C76.5176 23.828 76.7923 23.8205 77.1234 23.8054L77.6538 23.7941C77.6687 23.7941 77.6763 23.8166 77.6763 23.8619C77.6763 23.9069 77.6687 23.9296 77.6538 23.9296C77.3604 23.9296 77.146 23.952 77.0106 23.9973C76.8751 24.0348 76.7811 24.1064 76.7283 24.2116C76.6832 24.3169 76.6606 24.4825 76.6606 24.7083V30.2946L76.4575 30.2493L81.5359 23.7377ZM87.9072 23.6699C88.2684 23.6699 88.6333 23.7038 89.0018 23.7715C89.3706 23.8392 89.6641 23.9371 89.8821 24.065C89.9498 24.095 89.9912 24.1288 90.0063 24.1666C90.029 24.1965 90.0438 24.253 90.0514 24.3358L90.1756 25.5998C90.1756 25.6224 90.1568 25.6373 90.1191 25.6448C90.0816 25.6448 90.0589 25.6336 90.0514 25.611C89.886 25.0317 89.5774 24.6067 89.126 24.3358C88.6822 24.0575 88.1291 23.9182 87.4671 23.9182C86.8952 23.9182 86.3949 24.046 85.9662 24.302C85.5373 24.5502 85.2063 24.9039 84.9729 25.3628C84.7398 25.8217 84.6232 26.3521 84.6232 26.954C84.6232 27.6538 84.7661 28.3007 85.0521 28.895C85.3454 29.4896 85.7367 29.9597 86.2256 30.3058C86.7222 30.6519 87.2564 30.8248 87.8283 30.8248C88.37 30.8248 88.8401 30.6782 89.2388 30.3847C89.6376 30.0839 89.9423 29.625 90.153 29.008C90.153 28.9854 90.168 28.9742 90.1982 28.9742C90.2207 28.9742 90.2396 28.9778 90.2545 28.9854C90.2772 28.9929 90.2884 29.0042 90.2884 29.0192L90.1305 30.2946C90.1154 30.3847 90.0967 30.4449 90.074 30.4751C90.0589 30.4977 90.0175 30.524 89.9498 30.554C89.2727 30.8399 88.558 30.9829 87.8056 30.9829C86.9027 30.9829 86.1467 30.8024 85.5373 30.4412C84.9354 30.0725 84.4914 29.606 84.2057 29.0419C83.9197 28.4775 83.7767 27.8832 83.7767 27.2587C83.7767 26.5665 83.9687 25.9459 84.3523 25.3966C84.7359 24.8474 85.2438 24.4223 85.8758 24.1213C86.5079 23.8205 87.185 23.6699 87.9072 23.6699ZM96.6642 30.8475C96.5587 30.8475 96.4647 30.8212 96.3819 30.7686C96.3066 30.7084 96.1788 30.5579 95.9983 30.317C95.8178 30.0763 95.4941 29.6211 95.0277 28.9515C94.6591 28.4249 94.3919 28.06 94.2265 27.8569C94.0609 27.6538 93.8916 27.5108 93.7187 27.428C93.5455 27.3376 93.3124 27.2926 93.0189 27.2926C92.921 27.2926 92.8309 27.2962 92.7481 27.3038C92.6653 27.3113 92.5939 27.3189 92.5337 27.3264L92.5223 27.1233C92.9963 27.1006 93.365 27.0894 93.6283 27.0894C93.9518 27.0894 94.2002 27.127 94.3732 27.2022C94.5461 27.2699 94.7081 27.3905 94.8584 27.5634C95.0164 27.7364 95.261 28.0562 95.592 28.5226L95.7386 28.7258C96.0923 29.2299 96.3782 29.6136 96.5965 29.8769C96.8145 30.1328 97.0403 30.336 97.2736 30.4863C97.5143 30.6293 97.7851 30.7045 98.0862 30.7121C98.101 30.7121 98.1086 30.7347 98.1086 30.7798C98.1086 30.8248 98.101 30.8475 98.0862 30.8475H96.6642ZM91.1568 30.8475C91.1417 30.8475 91.1342 30.8248 91.1342 30.7798C91.1342 30.7347 91.1417 30.7121 91.1568 30.7121C91.4428 30.7121 91.6534 30.6933 91.7889 30.6556C91.9243 30.618 92.0144 30.5464 92.0597 30.4412C92.1123 30.3284 92.1386 30.1591 92.1386 29.9334V24.7083C92.1386 24.4825 92.116 24.3169 92.0709 24.2116C92.0259 24.1064 91.9355 24.0348 91.8001 23.9973C91.6647 23.952 91.454 23.9296 91.168 23.9296C91.1531 23.9296 91.1456 23.9069 91.1456 23.8619C91.1456 23.8166 91.1531 23.7941 91.168 23.7941L91.7212 23.8054C92.0371 23.8205 92.2928 23.828 92.4884 23.828C92.7067 23.828 92.9814 23.8205 93.3124 23.8054L93.8541 23.7941C93.869 23.7941 93.8765 23.8166 93.8765 23.8619C93.8765 23.9069 93.869 23.9296 93.8541 23.9296C93.5682 23.9296 93.3575 23.952 93.2221 23.9973C93.0866 24.0424 92.9926 24.1213 92.94 24.2343C92.8947 24.3395 92.8723 24.5051 92.8723 24.7307V29.9334C92.8723 30.1591 92.8947 30.3284 92.94 30.4412C92.9926 30.5464 93.083 30.618 93.2108 30.6556C93.3463 30.6933 93.5606 30.7121 93.8541 30.7121C93.869 30.7121 93.8765 30.7347 93.8765 30.7798C93.8765 30.8248 93.869 30.8475 93.8541 30.8475C93.6208 30.8475 93.4364 30.8438 93.301 30.8363L92.4884 30.8248L91.7212 30.8363C91.5857 30.8438 91.3975 30.8475 91.1568 30.8475ZM93.7864 27.1684L95.2084 25.1823C95.5469 24.7158 95.7162 24.3921 95.7162 24.2116C95.7162 24.1137 95.6673 24.0424 95.5694 23.9973C95.4792 23.952 95.3362 23.9296 95.1406 23.9296C95.1256 23.9296 95.118 23.9069 95.118 23.8619C95.118 23.8166 95.1256 23.7941 95.1406 23.7941L95.6259 23.8054C95.9118 23.8205 96.1788 23.828 96.4272 23.828C96.6829 23.828 96.9462 23.8205 97.2171 23.8054L97.6234 23.7941C97.646 23.7941 97.6572 23.8166 97.6572 23.8619C97.6572 23.9069 97.646 23.9296 97.6234 23.9296C97.2246 23.9296 96.8749 24.0273 96.5738 24.2229C96.2803 24.4111 95.9607 24.7346 95.6146 25.1935L93.9895 27.2699L93.7864 27.1684ZM103.867 24.7083C103.935 24.5728 103.968 24.4562 103.968 24.3583C103.968 24.2153 103.897 24.1101 103.754 24.0424C103.611 23.9671 103.385 23.9296 103.077 23.9296C103.054 23.9296 103.043 23.9069 103.043 23.8619C103.043 23.8166 103.054 23.7941 103.077 23.7941L103.539 23.8054C103.795 23.8205 104.029 23.828 104.239 23.828C104.367 23.828 104.521 23.8205 104.702 23.8054L105.142 23.7941C105.157 23.7941 105.165 23.8166 105.165 23.8619C105.165 23.9069 105.157 23.9296 105.142 23.9296C104.946 23.9296 104.758 24.001 104.578 24.1439C104.405 24.2869 104.254 24.4937 104.126 24.7646L102.027 29.245C101.862 29.5985 101.734 29.8883 101.644 30.1139C101.531 30.3623 101.448 30.5316 101.395 30.6217C101.35 30.7121 101.301 30.7722 101.249 30.8024C101.196 30.8324 101.121 30.8475 101.023 30.8475H99.3188C99.2962 30.8475 99.285 30.8248 99.285 30.7798C99.285 30.7347 99.2962 30.7121 99.3188 30.7121C99.8754 30.7121 100.357 30.5954 100.763 30.3623C101.17 30.1214 101.497 29.7339 101.745 29.1997L103.867 24.7083ZM99.285 24.7307C99.1269 24.4299 98.9803 24.2229 98.8449 24.1101C98.7094 23.9897 98.5287 23.9296 98.3032 23.9296C98.2881 23.9296 98.2805 23.9069 98.2805 23.8619C98.2805 23.8166 98.2881 23.7941 98.3032 23.7941L98.7545 23.8054C98.9803 23.8205 99.172 23.828 99.3301 23.828C99.6085 23.828 99.9056 23.8205 100.222 23.8054L100.673 23.7941C100.696 23.7941 100.707 23.8166 100.707 23.8619C100.707 23.9069 100.696 23.9296 100.673 23.9296C100.206 23.9296 99.9733 24.0499 99.9733 24.2906C99.9733 24.3809 100.007 24.49 100.075 24.6179L102.23 28.5791L101.802 29.3917L99.285 24.7307ZM109.442 23.6699C109.803 23.6699 110.168 23.7038 110.537 23.7715C110.905 23.8392 111.199 23.9371 111.417 24.065C111.485 24.095 111.526 24.1288 111.541 24.1666C111.564 24.1965 111.579 24.253 111.586 24.3358L111.71 25.5998C111.71 25.6224 111.692 25.6373 111.654 25.6448C111.616 25.6448 111.594 25.6336 111.586 25.611C111.421 25.0317 111.112 24.6067 110.661 24.3358C110.217 24.0575 109.664 23.9182 109.002 23.9182C108.43 23.9182 107.93 24.046 107.501 24.302C107.072 24.5502 106.741 24.9039 106.508 25.3628C106.275 25.8217 106.158 26.3521 106.158 26.954C106.158 27.6538 106.301 28.3007 106.587 28.895C106.88 29.4896 107.272 29.9597 107.761 30.3058C108.257 30.6519 108.791 30.8248 109.363 30.8248C109.905 30.8248 110.375 30.6782 110.774 30.3847C111.173 30.0839 111.477 29.625 111.688 29.008C111.688 28.9854 111.703 28.9742 111.733 28.9742C111.756 28.9742 111.775 28.9778 111.79 28.9854C111.812 28.9929 111.823 29.0042 111.823 29.0192L111.665 30.2946C111.65 30.3847 111.632 30.4449 111.609 30.4751C111.594 30.4977 111.553 30.524 111.485 30.554C110.808 30.8399 110.093 30.9829 109.341 30.9829C108.438 30.9829 107.682 30.8024 107.072 30.4412C106.47 30.0725 106.026 29.606 105.741 29.0419C105.455 28.4775 105.312 27.8832 105.312 27.2587C105.312 26.5665 105.504 25.9459 105.887 25.3966C106.271 24.8474 106.779 24.4223 107.411 24.1213C108.043 23.8205 108.72 23.6699 109.442 23.6699ZM116.991 23.6699C117.353 23.6699 117.718 23.7038 118.086 23.7715C118.455 23.8392 118.748 23.9371 118.967 24.065C119.034 24.095 119.075 24.1288 119.091 24.1666C119.113 24.1965 119.128 24.253 119.136 24.3358L119.26 25.5998C119.26 25.6224 119.241 25.6373 119.204 25.6448C119.166 25.6448 119.143 25.6336 119.136 25.611C118.97 25.0317 118.662 24.6067 118.21 24.3358C117.766 24.0575 117.213 23.9182 116.551 23.9182C115.98 23.9182 115.479 24.046 115.05 24.302C114.622 24.5502 114.29 24.9039 114.057 25.3628C113.824 25.8217 113.707 26.3521 113.707 26.954C113.707 27.6538 113.85 28.3007 114.136 28.895C114.43 29.4896 114.821 29.9597 115.31 30.3058C115.806 30.6519 116.341 30.8248 116.913 30.8248C117.454 30.8248 117.924 30.6782 118.323 30.3847C118.722 30.0839 119.027 29.625 119.237 29.008C119.237 28.9854 119.252 28.9742 119.282 28.9742C119.305 28.9742 119.324 28.9778 119.339 28.9854C119.361 28.9929 119.373 29.0042 119.373 29.0192L119.215 30.2946C119.2 30.3847 119.181 30.4449 119.158 30.4751C119.143 30.4977 119.102 30.524 119.034 30.554C118.357 30.8399 117.642 30.9829 116.89 30.9829C115.987 30.9829 115.231 30.8024 114.622 30.4412C114.02 30.0725 113.576 29.606 113.29 29.0419C113.004 28.4775 112.861 27.8832 112.861 27.2587C112.861 26.5665 113.053 25.9459 113.437 25.3966C113.82 24.8474 114.328 24.4223 114.96 24.1213C115.592 23.8205 116.269 23.6699 116.991 23.6699ZM121.979 23.9973C121.512 23.9973 121.159 24.1176 120.918 24.3583C120.685 24.5992 120.516 25.0091 120.41 25.5885C120.41 25.6034 120.388 25.611 120.343 25.611C120.305 25.611 120.286 25.6034 120.286 25.5885C120.316 25.3177 120.35 24.964 120.388 24.5276C120.425 24.0913 120.444 23.764 120.444 23.5457C120.444 23.5082 120.463 23.4894 120.501 23.4894C120.546 23.4894 120.568 23.5082 120.568 23.5457C120.568 23.7113 120.772 23.7941 121.178 23.7941C121.825 23.8166 122.581 23.828 123.446 23.828C123.89 23.828 124.36 23.8205 124.857 23.8054L125.624 23.7941C125.895 23.7941 126.095 23.7752 126.222 23.7377C126.358 23.7001 126.444 23.6249 126.482 23.5119C126.489 23.4819 126.512 23.4668 126.55 23.4668C126.587 23.4668 126.606 23.4819 126.606 23.5119C126.584 23.7301 126.561 24.0611 126.538 24.5051C126.516 24.9489 126.504 25.3101 126.504 25.5885C126.504 25.6034 126.482 25.611 126.437 25.611C126.392 25.611 126.369 25.6034 126.369 25.5885C126.347 25.0016 126.226 24.5916 126.008 24.3583C125.79 24.1176 125.429 23.9973 124.925 23.9973C124.586 23.9973 124.345 24.0122 124.202 24.0424C124.059 24.0725 123.962 24.1364 123.909 24.2343C123.856 24.332 123.83 24.4976 123.83 24.7307V29.9334C123.83 30.1667 123.856 30.336 123.909 30.4412C123.962 30.5464 124.063 30.618 124.214 30.6556C124.364 30.6933 124.601 30.7121 124.925 30.7121C124.947 30.7121 124.959 30.7347 124.959 30.7798C124.959 30.8248 124.947 30.8475 124.925 30.8475C124.676 30.8475 124.477 30.8438 124.326 30.8363L123.446 30.8248L122.6 30.8363C122.449 30.8438 122.242 30.8475 121.979 30.8475C121.964 30.8475 121.957 30.8248 121.957 30.7798C121.957 30.7347 121.964 30.7121 121.979 30.7121C122.303 30.7121 122.54 30.6933 122.69 30.6556C122.84 30.618 122.942 30.5464 122.995 30.4412C123.055 30.3284 123.085 30.1591 123.085 29.9334V24.7083C123.085 24.4749 123.059 24.3132 123.006 24.2229C122.953 24.1252 122.856 24.065 122.713 24.0424C122.57 24.0122 122.325 23.9973 121.979 23.9973ZM130.52 26.8637C130.956 26.8637 131.344 26.9465 131.682 27.1121C132.021 27.2775 132.28 27.5069 132.461 27.8004C132.649 28.0864 132.743 28.4098 132.743 28.771C132.743 29.1698 132.645 29.5308 132.45 29.8544C132.254 30.1779 131.983 30.4337 131.637 30.6217C131.298 30.8024 130.918 30.8926 130.497 30.8926C130.249 30.8926 129.978 30.8813 129.685 30.8587C129.579 30.8512 129.455 30.8438 129.312 30.8363C129.169 30.8287 129.011 30.8248 128.838 30.8248L128.071 30.8363C127.935 30.8438 127.743 30.8475 127.495 30.8475C127.48 30.8475 127.473 30.8248 127.473 30.7798C127.473 30.7347 127.48 30.7121 127.495 30.7121C127.781 30.7121 127.992 30.6933 128.127 30.6556C128.263 30.6105 128.357 30.5352 128.409 30.43C128.462 30.3245 128.488 30.1591 128.488 29.9334V24.7083C128.488 24.4825 128.462 24.3169 128.409 24.2116C128.364 24.1064 128.274 24.0348 128.139 23.9973C128.003 23.952 127.796 23.9296 127.518 23.9296C127.495 23.9296 127.484 23.9069 127.484 23.8619C127.484 23.8166 127.495 23.7941 127.518 23.7941L128.071 23.8054C128.387 23.8205 128.643 23.828 128.838 23.828C128.974 23.828 129.098 23.8241 129.211 23.8166C129.331 23.809 129.433 23.8017 129.515 23.7941C129.756 23.7715 129.974 23.7603 130.17 23.7603C130.802 23.7603 131.276 23.8994 131.592 24.1778C131.908 24.4486 132.066 24.806 132.066 25.25C132.066 25.6711 131.912 26.0362 131.603 26.3446C131.302 26.6456 130.9 26.86 130.396 26.9879L130.52 26.8637ZM129.922 23.9296C129.719 23.9296 129.572 23.9445 129.482 23.9746C129.391 24.0048 129.324 24.0762 129.278 24.189C129.233 24.302 129.211 24.4825 129.211 24.7307V26.9428L128.85 26.8524C129.173 26.8751 129.463 26.8863 129.719 26.8863C130.268 26.8863 130.674 26.7472 130.937 26.4688C131.201 26.1829 131.332 25.8066 131.332 25.3401C131.332 24.919 131.216 24.5804 130.982 24.3244C130.757 24.0611 130.403 23.9296 129.922 23.9296ZM130.328 30.6894C130.877 30.6894 131.283 30.5503 131.547 30.2719C131.817 29.986 131.953 29.5797 131.953 29.0531C131.953 28.4812 131.784 28.0186 131.445 27.665C131.114 27.3113 130.655 27.1308 130.068 27.1233C129.639 27.1082 129.245 27.127 128.883 27.1798L129.211 27.0556V29.9334C129.211 30.129 129.237 30.2795 129.29 30.3847C129.35 30.4902 129.459 30.5691 129.617 30.6217C129.782 30.667 130.019 30.6894 130.328 30.6894ZM135.605 27.5183H138.596L138.675 27.7439H135.492L135.605 27.5183ZM141.191 30.7121C141.222 30.7121 141.237 30.7347 141.237 30.7798C141.237 30.8248 141.222 30.8475 141.191 30.8475C141.048 30.8475 140.827 30.8399 140.526 30.8248C140.225 30.81 140.006 30.8024 139.871 30.8024C139.706 30.8024 139.495 30.81 139.239 30.8248C138.998 30.8399 138.814 30.8475 138.686 30.8475C138.656 30.8475 138.641 30.8248 138.641 30.7798C138.641 30.7347 138.656 30.7121 138.686 30.7121C138.972 30.7121 139.175 30.6858 139.295 30.6331C139.423 30.5803 139.487 30.4863 139.487 30.3509C139.487 30.2381 139.442 30.08 139.352 29.8769L136.847 24.5841L137.129 24.2343L134.939 29.4143C134.834 29.6701 134.781 29.8807 134.781 30.0462C134.781 30.4902 135.15 30.7121 135.887 30.7121C135.925 30.7121 135.944 30.7347 135.944 30.7798C135.944 30.8248 135.925 30.8475 135.887 30.8475C135.752 30.8475 135.556 30.8399 135.3 30.8248C135.015 30.81 134.766 30.8024 134.556 30.8024C134.36 30.8024 134.134 30.81 133.878 30.8248C133.653 30.8399 133.465 30.8475 133.314 30.8475C133.277 30.8475 133.258 30.8248 133.258 30.7798C133.258 30.7347 133.277 30.7121 133.314 30.7121C133.525 30.7121 133.702 30.6745 133.845 30.5993C133.995 30.5165 134.134 30.3772 134.262 30.1816C134.398 29.9784 134.544 29.6888 134.702 29.3127L137.084 23.6926C137.099 23.6699 137.125 23.6587 137.162 23.6587C137.2 23.6587 137.223 23.6699 137.23 23.6926L139.894 29.3013C140.149 29.8581 140.368 30.2344 140.548 30.43C140.729 30.618 140.943 30.7121 141.191 30.7121Z" fill="white"/>
</svg>
