<svg width="185" height="30" viewBox="0 0 185 30" fill="none" xmlns="http://www.w3.org/2000/svg">
<path d="M82.362 1.7546e-05L76.5524 10.3347L70.8435 1.7546e-05H63.6295V12.5069H50.9167L62.185 4.01052V1.7546e-05H28.0324L19.2933 16.5422V13.157C19.3247 12.4181 19.0987 11.6917 18.6561 11.11C18.1565 10.5374 17.489 10.1492 16.7558 10.0052C17.1723 9.92962 17.5691 9.76672 17.9225 9.52672C18.2755 9.28634 18.5775 8.97411 18.8092 8.60863C19.2181 7.91131 19.4226 6.84817 19.4226 5.41951C19.4226 3.36004 18.9626 1.94117 18.0427 1.16296C17.1228 0.384756 15.3959 -0.00300608 12.8625 1.7546e-05H0V16.5465H4.90205V12.3107H12.1928C13.0681 12.3107 13.6573 12.4316 13.9518 12.6777C14.1196 12.853 14.2469 13.0647 14.3248 13.2979C14.4023 13.5311 14.4276 13.7794 14.3996 14.0244V16.5256H24.6111L26.1725 13.77H35.9361L37.4853 16.5256H42.8515L36.3519 4.01052H55.1006L42.7669 13.2239L44.4854 16.5589H68.3864V4.75654L74.9465 16.5465H78.138L84.7506 4.75654V16.5465H89.483V1.7546e-05H82.362ZM14.0485 7.69593C13.866 7.8713 13.649 8.00392 13.412 8.08518C13.1754 8.16644 12.9249 8.19442 12.6769 8.16682H4.90205V4.1231H12.6769C12.9199 4.10307 13.1645 4.13371 13.3958 4.21345C13.6275 4.29282 13.841 4.41942 14.0243 4.58572C14.3316 4.98938 14.4764 5.50039 14.428 6.01139C14.4439 6.81189 14.3108 7.37883 14.0485 7.69593ZM28.0324 9.80944L31.0666 3.95605L34.173 9.79276L28.0324 9.80944Z" fill="#FEFEFE"/>
<path d="M98.2237 0L89.481 16.5464H94.8142L96.3759 13.7908H106.111L107.66 16.5464H113.027L104.461 0H98.2237ZM98.2237 9.80942L101.266 3.97308L104.377 9.80942H98.2237Z" fill="#FEFEFE"/>
<path d="M129.816 0V12.1357L120.279 0H113.041V16.5464H117.922V4.51085L127.525 16.5464H134.686V0H129.816Z" fill="#FEFEFE"/>
<path d="M175.47 14.5663L184.011 29.1368H166.925L158.387 14.5663H166.925L158.387 0H175.47L184.011 14.5663H175.47Z" fill="#FEFEFE"/>
<path d="M158.397 0H143.324V29.1368H158.397V0Z" fill="#FEFEFE"/>
<path d="M41.0659 29.1342V22.9268H43.9263C44.8435 22.9268 45.3009 23.3992 45.2982 24.3444V25.5199C45.2982 26.4621 44.8409 26.9331 43.9263 26.9331H41.9575V29.1217L41.0659 29.1342ZM41.9533 26.1159H43.9183C43.9848 26.1257 44.0532 26.1193 44.1171 26.0974C44.181 26.0751 44.2392 26.0381 44.2872 25.9885C44.3348 25.9394 44.3707 25.8793 44.3923 25.8132C44.4134 25.747 44.4199 25.6764 44.4104 25.6076V24.2775C44.4214 24.208 44.4161 24.1365 44.3953 24.0693C44.3745 24.002 44.3386 23.9408 44.291 23.8905C44.243 23.8403 44.1844 23.802 44.1194 23.7797C44.0548 23.7571 43.986 23.7506 43.9183 23.7605H41.9575L41.9533 26.1159Z" fill="#FEFEFE"/>
<path d="M51.084 29.1342V22.9268H53.9447C54.8616 22.9268 55.3189 23.3992 55.3163 24.3444V25.3407C55.3163 26.1076 55.0098 26.5622 54.3963 26.7081L55.4898 28.9177L55.3768 29.1217H54.6223L53.4564 26.7497H51.9714V29.1217L51.084 29.1342ZM51.9714 25.9367H53.9364C54.0033 25.9462 54.0717 25.9398 54.136 25.9175C54.1998 25.8955 54.2584 25.8585 54.3064 25.8094C54.354 25.7599 54.3907 25.7001 54.4126 25.634C54.4345 25.5679 54.4413 25.4976 54.4326 25.428V24.2775C54.4428 24.2076 54.4368 24.1362 54.4156 24.0689C54.3945 24.002 54.3582 23.9408 54.3098 23.8905C54.2618 23.8403 54.2028 23.8024 54.1382 23.7797C54.0732 23.7574 54.004 23.7506 53.9364 23.7605H51.9714V25.9367Z" fill="#FEFEFE"/>
<path d="M61.1045 27.7172V24.3568C61.1045 23.4093 61.5607 22.9368 62.4723 22.9395H64.4898C65.4067 22.9395 65.8656 23.4119 65.8656 24.3568V27.7172C65.8656 28.6647 65.4067 29.1371 64.4898 29.1345H62.4723C61.5607 29.1345 61.1045 28.6621 61.1045 27.7172ZM61.9923 27.7962C61.9825 27.8653 61.9882 27.9357 62.009 28.0018C62.0297 28.0683 62.0653 28.1288 62.1125 28.1787C62.1601 28.2282 62.218 28.266 62.2818 28.2887C62.3457 28.3114 62.4137 28.3181 62.4806 28.3091H64.4777C64.5442 28.3174 64.6119 28.3098 64.6754 28.2868C64.7389 28.2637 64.7964 28.2263 64.8436 28.1764C64.8908 28.1269 64.9264 28.0668 64.9475 28.0011C64.9687 27.9353 64.9747 27.8649 64.9657 27.7962V24.2778C64.9755 24.2086 64.9698 24.138 64.9491 24.0715C64.9279 24.005 64.8927 23.9445 64.8455 23.8946C64.7982 23.8443 64.7404 23.8065 64.6766 23.7831C64.6127 23.76 64.5446 23.7525 64.4777 23.7608H62.4806C62.4137 23.7517 62.3457 23.7585 62.2818 23.7812C62.218 23.8039 62.1601 23.8417 62.1125 23.8912C62.0653 23.9411 62.0297 24.0016 62.009 24.0677C61.9882 24.1342 61.9825 24.2045 61.9923 24.2737V27.7962Z" fill="#FEFEFE"/>
<path d="M71.8135 29.1342V22.9268H74.1333C75.6421 22.9268 76.3927 23.7023 76.3927 25.2614V26.7871C76.3927 28.3462 75.6421 29.1217 74.1333 29.1217L71.8135 29.1342ZM72.7013 28.3005H74.1859C75.0654 28.3005 75.5091 27.8462 75.5091 26.9372V25.1279C75.5091 24.2193 75.0654 23.7647 74.1859 23.7647H72.7013V28.3005Z" fill="#FEFEFE"/>
<path d="M82.1978 27.7169V22.9268H83.1056V27.7963C83.095 27.8651 83.0999 27.9354 83.1203 28.0015C83.1408 28.068 83.1759 28.1285 83.2228 28.1784C83.27 28.2283 83.3275 28.2661 83.3913 28.2887C83.4548 28.3114 83.5229 28.3182 83.5898 28.3087H85.4175C85.4848 28.3186 85.5536 28.3121 85.6179 28.2898C85.6825 28.2672 85.741 28.2298 85.789 28.1803C85.837 28.1304 85.8733 28.0699 85.8953 28.0034C85.9168 27.9368 85.9232 27.8658 85.9138 27.7963V22.9268H86.8012V27.7169C86.8012 28.6648 86.3427 29.1372 85.4254 29.1342H83.5818C82.6619 29.1342 82.2004 28.6617 82.1978 27.7169Z" fill="#FEFEFE"/>
<path d="M92.6953 27.7172V24.3568C92.6953 23.4104 93.147 22.9395 94.059 22.9395H96.4794L96.9231 23.2978V23.7608H94.0714C94.0041 23.7517 93.9361 23.7585 93.8722 23.7812C93.8087 23.8039 93.7505 23.8417 93.7029 23.8912C93.6564 23.9411 93.6205 24.0016 93.5997 24.0677C93.5782 24.1342 93.5729 24.2045 93.5827 24.2737V27.792C93.5729 27.8612 93.5782 27.9315 93.5997 27.998C93.6205 28.0642 93.6564 28.1246 93.7029 28.1741C93.7505 28.224 93.8087 28.2619 93.8722 28.2845C93.9361 28.3068 94.0041 28.314 94.0714 28.3049H96.9231V28.7634L96.4794 29.122H94.059C93.147 29.1345 92.6953 28.6636 92.6953 27.7172Z" fill="#FEFEFE"/>
<path d="M102.075 23.7605V22.9268H106.856V23.7605H104.899V29.1342H104.012V23.7605H102.075Z" fill="#FEFEFE"/>
<path d="M112.36 29.1342V22.9268H113.244V29.1342H112.36Z" fill="#FEFEFE"/>
<path d="M119.189 27.7172V24.3568C119.189 23.4093 119.645 22.9368 120.557 22.9395H122.574C123.488 22.9395 123.947 23.4119 123.95 24.3568V27.7172C123.95 28.6647 123.491 29.1371 122.574 29.1345H120.557C119.645 29.1345 119.189 28.6621 119.189 27.7172ZM120.077 27.7962C120.067 27.8653 120.073 27.9357 120.093 28.0018C120.115 28.0683 120.15 28.1288 120.197 28.1787C120.245 28.2282 120.302 28.266 120.366 28.2887C120.43 28.3114 120.499 28.3181 120.565 28.3091H122.582C122.647 28.314 122.713 28.3038 122.774 28.2792C122.835 28.255 122.89 28.2168 122.934 28.1677C122.979 28.1186 123.013 28.0596 123.033 27.9954C123.053 27.9311 123.059 27.8631 123.05 27.7962V24.2778C123.06 24.2086 123.054 24.138 123.034 24.0715C123.012 24.005 122.977 23.9445 122.93 23.8946C122.882 23.8443 122.825 23.8065 122.761 23.7831C122.698 23.76 122.63 23.7525 122.562 23.7608H120.545C120.478 23.7517 120.41 23.7585 120.346 23.7812C120.282 23.8039 120.224 23.8417 120.177 23.8912C120.13 23.9411 120.094 24.0016 120.073 24.0677C120.052 24.1342 120.047 24.2045 120.056 24.2737L120.077 27.7962Z" fill="#FEFEFE"/>
<path d="M129.923 29.1342V22.9268H130.896L133.817 27.667V22.9268H134.704V29.1342H133.732L130.811 24.3943V29.1342H129.923Z" fill="#FEFEFE"/>
</svg>
