<svg width="411" height="75" viewBox="0 0 411 75" fill="none" xmlns="http://www.w3.org/2000/svg">
<path d="M56.125 52.1218C56.3585 52.1218 56.4761 52.2073 56.4761 52.3724C56.4761 52.5361 56.3585 52.6181 56.125 52.6181C54.5678 52.6181 53.3523 52.5928 52.4826 52.5417C51.6115 52.4941 50.9035 52.4609 50.3604 52.4355C49.8196 52.4144 49.2425 52.4034 48.6264 52.4034H43.6775C43.0625 52.4034 42.482 52.4144 41.9389 52.4355C41.3984 52.4609 40.6913 52.4941 39.8224 52.5417C38.9515 52.5928 37.7372 52.6181 36.18 52.6181C35.9442 52.6181 35.838 52.5361 35.8599 52.3724C35.8845 52.2073 35.9907 52.1218 36.18 52.1218C38.0641 52.0765 39.4988 51.8516 40.4883 51.4502C41.4801 51.0469 42.1517 50.093 42.5032 48.5868C42.8577 47.0765 43.0372 44.6932 43.0372 41.4386V26.9468C40.7291 26.9468 38.444 26.9581 36.18 26.9846C33.9142 27.0046 31.3698 27.0144 28.5431 27.0144C26.8945 27.0144 25.1124 27.0046 23.1989 26.9846C21.2906 26.9581 19.4636 26.9468 17.717 26.9468C15.9751 26.9468 14.5146 26.9468 13.3347 26.9468V41.4386C13.3347 44.6932 13.5097 47.0765 13.8619 48.5868C14.2164 50.093 14.8881 51.0469 15.8775 51.4502C16.8693 51.8516 18.31 52.0765 20.1983 52.1218C20.4319 52.1218 20.5581 52.2073 20.5815 52.3724C20.6057 52.5361 20.4772 52.6181 20.1983 52.6181C18.64 52.6181 17.4366 52.5928 16.587 52.5417C15.7403 52.4941 15.0457 52.4609 14.5025 52.4355C13.9628 52.4144 13.3846 52.4034 12.7696 52.4034H7.82072C7.20806 52.4034 6.63054 52.4144 6.08667 52.4355C5.54695 52.4609 4.83867 52.4941 3.96447 52.5417C3.09366 52.5928 1.88006 52.6181 0.322138 52.6181C0.0874289 52.6181 -0.02029 52.5361 0.00314308 52.3724C0.0273321 52.2073 0.135051 52.1218 0.322138 52.1218C2.20926 52.0765 3.64774 51.8516 4.63722 51.4502C5.62897 51.0469 6.30135 50.093 6.65285 48.5868C7.00737 47.0765 7.18576 44.6932 7.18576 41.4386V13.8583C7.18576 10.606 7.00737 8.22563 6.65285 6.71873C6.30135 5.20843 5.62897 4.24201 4.63722 3.81644C3.64774 3.39427 2.20926 3.18261 0.322138 3.18261C0.135051 3.18261 0.0273321 3.10173 0.00314308 2.9377C-0.02029 2.77253 0.0874289 2.6875 0.322138 2.6875C1.88006 2.6875 3.09366 2.70941 3.96447 2.7559C4.83867 2.8039 5.54695 2.83717 6.08667 2.86362C6.63054 2.88781 7.20806 2.90028 7.82072 2.90028H12.7696C13.3846 2.90028 13.9628 2.88781 14.5025 2.86362C15.0457 2.83717 15.7403 2.8039 16.587 2.7559C17.4366 2.70941 18.64 2.6875 20.1983 2.6875C20.4772 2.6875 20.6057 2.77253 20.5815 2.9377C20.5581 3.10173 20.4319 3.18261 20.1983 3.18261C18.31 3.18261 16.8693 3.39427 15.8775 3.81644C14.8881 4.24201 14.2164 5.20843 13.8619 6.71873C13.5097 8.22563 13.3347 10.606 13.3347 13.8583V26.3043C15.7868 26.3043 18.3456 26.2963 21.0082 26.2733C23.6732 26.2498 26.1609 26.2355 28.4679 26.2355C31.3944 26.2355 33.9773 26.2498 36.2178 26.2733C38.4561 26.2963 40.7291 26.3043 43.0372 26.3043V13.8583C43.0372 10.606 42.8577 8.22563 42.5032 6.71873C42.1517 5.20843 41.4801 4.24201 40.4883 3.81644C39.4988 3.39427 38.0641 3.18261 36.18 3.18261C35.9907 3.18261 35.8845 3.10173 35.8599 2.9377C35.838 2.77253 35.9442 2.6875 36.18 2.6875C37.7372 2.6875 38.9515 2.70941 39.8224 2.7559C40.6913 2.8039 41.3984 2.83717 41.9389 2.86362C42.482 2.88781 43.0625 2.90028 43.6775 2.90028H48.6264C49.2425 2.90028 49.8196 2.88781 50.3604 2.86362C50.9035 2.83717 51.6115 2.8039 52.4826 2.7559C53.3523 2.70941 54.5678 2.6875 56.125 2.6875C56.3585 2.6875 56.4761 2.77253 56.4761 2.9377C56.4761 3.10173 56.3585 3.18261 56.125 3.18261C54.2356 3.18261 52.796 3.39427 51.8031 3.81644C50.8147 4.24201 50.1333 5.20843 49.7565 6.71873C49.38 8.22563 49.1914 10.606 49.1914 13.8583V41.4386C49.1914 44.6932 49.38 47.0765 49.7565 48.5868C50.1333 50.093 50.8147 51.0469 51.8031 51.4502C52.796 51.8516 54.2356 52.0765 56.125 52.1218Z" fill="#FEFEFE"/>
<path d="M103.435 33.3088C103.485 33.167 103.591 33.1062 103.755 33.1315C103.917 33.1568 103.999 33.2169 103.999 33.3088L99.1201 55.0928C99.0737 55.2814 98.9327 55.2814 98.6991 55.0928C98.413 54.716 98.0241 54.3127 97.5312 53.886C97.0357 53.4627 96.259 53.1093 95.1951 52.8247C94.1361 52.5443 92.5921 52.4037 90.5678 52.4037H64.1864C63.5733 52.4037 62.995 52.4147 62.4519 52.4358C61.9126 52.4611 61.2043 52.4944 60.3301 52.542C59.4593 52.5931 58.2446 52.6184 56.6878 52.6184C56.4519 52.6184 56.3453 52.5364 56.3676 52.3727C56.393 52.2075 56.4995 52.1221 56.6878 52.1221C58.5749 52.0768 60.013 51.8519 61.0017 51.4505C61.9946 51.0472 62.6658 50.0933 63.0185 48.5871C63.373 47.0768 63.5514 44.6935 63.5514 41.4389V13.8586C63.5514 10.6063 63.373 8.22592 63.0185 6.71903C62.6658 5.20873 61.9946 4.24231 61.0017 3.81673C60.013 3.39456 58.5749 3.18291 56.6878 3.18291C56.4995 3.18291 56.393 3.10203 56.3676 2.93799C56.3453 2.77283 56.4519 2.68779 56.6878 2.68779C58.2446 2.68779 59.4593 2.70971 60.3301 2.7562C61.2043 2.8042 61.9126 2.83746 62.4519 2.86392C62.995 2.88811 63.5733 2.90058 64.1864 2.90058H87.2381C89.2182 2.90058 90.7508 2.77283 91.8355 2.51166C92.9191 2.25314 93.7203 1.92205 94.2412 1.51878C94.7586 1.11739 95.16 0.681991 95.4468 0.214464C95.5375 0.116952 95.6195 0.0693359 95.6906 0.0693359C95.7617 0.0693359 95.7979 0.116952 95.7979 0.214464L100.464 20.8617C100.464 21.0045 100.391 21.0865 100.251 21.113C100.112 21.1353 99.9943 21.0499 99.898 20.8617C98.3922 16.3825 96.7054 12.9054 94.844 10.4298C92.9803 7.95569 90.8936 6.21371 88.5832 5.19967C86.2716 4.18146 83.6543 3.67387 80.7324 3.67387H69.6992V26.5873H79.8857C84.7413 26.5873 87.1693 24.2092 87.1693 19.4489C87.1693 19.2149 87.2513 19.0951 87.4153 19.0951C87.5805 19.0951 87.6659 19.2149 87.6659 19.4489V34.6509C87.6659 34.8391 87.5805 34.9343 87.4153 34.9343C87.2513 34.9343 87.1693 34.8391 87.1693 34.6509C87.1693 31.9183 86.5797 30.0357 85.3997 28.9993C84.2216 27.9611 82.3844 27.4426 79.8857 27.4426H69.6992V51.6266H82.1463C84.6449 51.6266 86.9198 51.393 88.9721 50.9221C91.0221 50.4489 92.8972 49.5634 94.5923 48.2659C96.29 46.9695 97.8593 45.1179 99.2963 42.7145C100.736 40.313 102.115 37.1748 103.435 33.3088Z" fill="#FEFEFE"/>
<path d="M125.08 25.9547C133.565 25.9547 139.989 27.1101 144.347 29.4205C148.707 31.7309 150.89 34.9133 150.89 38.9657C150.89 41.7017 150.029 44.0828 148.309 46.1132C146.589 48.1386 144.159 49.6943 141.025 50.7782C137.887 51.8618 134.223 52.4038 130.028 52.4038L111.428 52.335C110.816 52.335 110.237 52.3471 109.695 52.3728C109.155 52.3959 108.447 52.4257 107.573 52.4734C106.701 52.5232 105.487 52.5501 103.93 52.5501C103.694 52.5501 103.587 52.4545 103.61 52.2651C103.635 52.0746 103.742 51.9771 103.93 51.9771C105.816 51.9771 107.256 51.7677 108.244 51.3433C109.236 50.92 109.908 49.9668 110.26 48.4799C110.614 46.9938 110.794 44.6225 110.794 41.3702V13.8587C110.794 10.6064 110.614 8.23927 110.26 6.7577C109.908 5.27083 109.236 4.31764 108.244 3.89244C107.256 3.46573 105.816 3.25295 103.93 3.25295C103.742 3.25295 103.635 3.15884 103.61 2.96911C103.587 2.78089 103.694 2.68791 103.93 2.68791C105.487 2.68791 106.701 2.70983 107.573 2.75631C108.447 2.80431 109.155 2.83758 109.695 2.86404C110.237 2.88822 110.816 2.9007 111.428 2.9007H134.626C136.605 2.9007 138.137 2.77295 139.222 2.51178C140.306 2.25326 141.108 1.92217 141.626 1.5189C142.145 1.11751 142.545 0.68211 142.826 0.214583C143.015 -0.0715276 143.156 -0.0715276 143.253 0.214583L147.851 20.8618C147.851 21.0046 147.779 21.0867 147.637 21.1131C147.494 21.1354 147.377 21.05 147.286 20.8618C145.773 16.3827 144.085 12.9055 142.224 10.4299C140.364 7.95581 138.28 6.21383 135.968 5.19979C133.658 4.18158 131.041 3.67399 128.12 3.67399H117.582C117.251 5.14006 117.06 6.69685 117.01 8.34473C116.964 9.99563 116.942 11.9281 116.942 14.1422V25.9547H125.08ZM127.271 51.5583C130.524 51.5583 133.398 51.0152 135.893 49.9293C138.393 48.8465 140.337 47.3631 141.727 45.4771C143.122 43.5911 143.818 41.4447 143.818 39.0345C143.818 36.7297 143.3 34.8203 142.261 33.3146C141.222 31.8043 139.845 30.5997 138.123 29.7021C136.402 28.809 134.503 28.1498 132.427 27.7254C130.355 27.2987 128.258 27.0273 126.135 26.9086C124.016 26.7934 122.036 26.7325 120.194 26.7325H116.942V39.6063C116.942 42.198 116.954 44.1883 116.979 45.5776C117.004 46.9696 117.062 48.0778 117.154 48.9066C117.251 49.7332 117.394 50.6142 117.582 51.5583H127.271Z" fill="#FEFEFE"/>
<path d="M177.131 53.1835C172.085 53.1835 167.631 52.146 163.761 50.0741C159.896 47.9995 156.892 45.0877 154.744 41.34C152.599 37.5892 151.529 33.2385 151.529 28.29C151.529 24.5645 152.2 21.1229 153.544 17.9658C154.889 14.8065 156.748 12.0354 159.127 9.65164C161.509 7.27054 164.279 5.41896 167.436 4.10028C170.596 2.78047 174.017 2.12207 177.697 2.12207C182.929 2.12207 187.513 3.17051 191.449 5.26815C195.383 7.36579 198.436 10.29 200.605 14.0408C202.778 17.7886 203.864 22.1842 203.864 27.2295C203.864 30.9504 203.193 34.3921 201.849 37.5525C200.505 40.7152 198.618 43.4588 196.191 45.7923C193.762 48.125 190.931 49.9399 187.7 51.2351C184.473 52.533 180.949 53.1835 177.131 53.1835ZM178.683 52.259C181.935 52.259 184.951 51.3992 187.733 49.6784C190.515 47.9564 192.754 45.378 194.451 41.9352C196.15 38.4944 196.953 34.205 196.862 29.0678C196.812 25.6239 196.304 22.335 195.337 19.2025C194.372 16.0689 192.995 13.2864 191.204 10.8573C189.411 8.42934 187.29 6.52031 184.836 5.12944C182.383 3.73669 179.649 3.03861 176.635 3.03861C173.382 3.03861 170.363 3.92529 167.58 5.696C164.799 7.46331 162.572 10.0784 160.899 13.5446C159.224 17.0085 158.434 21.3088 158.531 26.4505C158.531 29.8468 159.011 33.0979 159.975 36.2085C160.943 39.3198 162.321 42.0891 164.114 44.517C165.904 46.9458 168.027 48.8563 170.482 50.2502C172.933 51.6399 175.668 52.3101 178.683 52.259Z" fill="#FEFEFE"/>
<path d="M211.003 53.1838C209.824 53.1838 208.848 52.7949 208.069 52.0148C207.29 51.2354 206.901 50.328 206.901 49.2897C206.901 48.2062 207.278 47.2874 208.032 46.5318C208.786 45.7782 209.775 45.4014 211.003 45.4014C212.135 45.4014 213.09 45.7782 213.866 46.5318C214.645 47.2874 215.034 48.2062 215.034 49.2897C215.034 50.328 214.667 51.2354 213.935 52.0148C213.206 52.7949 212.229 53.1838 211.003 53.1838Z" fill="#FEFEFE"/>
<path d="M177.632 41.0222C177.245 28.371 176.924 28.0508 164.271 27.6627C176.924 27.276 177.245 26.9536 177.632 14.3047C178.019 26.9536 178.339 27.276 190.991 27.6627C178.339 28.0508 178.019 28.3589 177.632 41.0222Z" fill="#FEFEFE"/>
<path d="M244.688 31.9196H234.854V40.5494C234.854 43.2366 234.995 45.3584 235.281 46.9163C235.565 48.4743 236.06 49.63 236.763 50.3826C237.471 51.1373 238.483 51.6336 239.802 51.8717C241.124 52.1068 242.799 52.222 244.826 52.222C245.156 52.222 245.331 52.3173 245.353 52.5055C245.379 52.6941 245.203 52.7894 244.826 52.7894C242.565 52.7894 240.809 52.7629 239.557 52.713C238.309 52.6654 237.297 52.631 236.517 52.6064C235.74 52.5841 234.901 52.5743 234.007 52.5743H229.34C228.728 52.5743 228.15 52.5841 227.607 52.6064C227.067 52.631 226.359 52.6654 225.484 52.713C224.613 52.7629 223.4 52.7894 221.843 52.7894C221.607 52.7894 221.501 52.7062 221.522 52.5433C221.547 52.3759 221.654 52.2908 221.843 52.2908C223.729 52.2462 225.167 52.0213 226.157 51.6215C227.149 51.2171 227.82 50.2639 228.173 48.7558C228.527 47.2467 228.707 44.8622 228.707 41.6099V14.0292C228.707 10.7769 228.527 8.39578 228.173 6.88964C227.82 5.37934 227.149 4.41216 226.157 3.98772C225.167 3.56668 223.729 3.35389 221.843 3.35389C221.654 3.35389 221.547 3.27187 221.522 3.10898C221.501 2.94381 221.607 2.8584 221.843 2.8584C223.4 2.8584 224.613 2.88182 225.484 2.92718C226.359 2.97367 227.067 3.00806 227.607 3.03339C228.15 3.05795 228.728 3.07005 229.34 3.07005H243.557C250.77 3.07005 256.39 4.36869 260.419 6.95842C264.45 9.55155 266.466 13.0862 266.466 17.5653C266.466 22.0452 264.557 25.5579 260.74 28.103C256.921 30.6485 251.57 31.9196 244.688 31.9196ZM235.493 3.84485C235.444 4.13058 235.36 4.5195 235.243 5.01802C235.126 5.51238 235.032 6.2902 234.961 7.34733C234.889 8.40787 234.854 9.95143 234.854 11.9826V31.1482H242.214C247.681 31.1482 251.911 29.9115 254.905 27.437C257.897 24.9584 259.395 21.6453 259.395 17.4954C259.395 13.4441 257.897 10.1552 254.905 7.63119C251.911 5.10571 247.728 3.84485 242.352 3.84485H235.493Z" fill="#FEFEFE"/>
<path d="M313.215 33.4791C313.266 33.337 313.372 33.2772 313.534 33.3029C313.697 33.3271 313.777 33.3857 313.777 33.4791L308.901 55.2631C308.853 55.4514 308.715 55.4514 308.479 55.2631C308.194 54.8852 307.804 54.4842 307.313 54.0563C306.819 53.6342 306.037 53.2808 304.977 52.9958C303.915 52.7146 302.372 52.5747 300.347 52.5747H273.966C273.354 52.5747 272.776 52.5846 272.233 52.6069C271.693 52.6314 270.985 52.6658 270.109 52.7135C269.239 52.7634 268.025 52.7898 266.468 52.7898C266.232 52.7898 266.125 52.7067 266.148 52.5438C266.173 52.3763 266.28 52.2913 266.468 52.2913C268.354 52.2467 269.794 52.0218 270.782 51.6219C271.774 51.2175 272.446 50.2643 272.798 48.7563C273.153 47.2471 273.331 44.8626 273.331 41.6103V14.0296C273.331 10.7773 273.153 8.39623 272.798 6.89009C272.446 5.37979 271.774 4.41261 270.782 3.98817C269.794 3.56713 268.354 3.35434 266.468 3.35434C266.28 3.35434 266.173 3.27233 266.148 3.10943C266.125 2.94426 266.232 2.85885 266.468 2.85885C268.025 2.85885 269.239 2.88228 270.109 2.92763C270.985 2.97412 271.693 3.00852 272.233 3.03384C272.776 3.05841 273.354 3.0705 273.966 3.0705H297.019C298.999 3.0705 300.531 2.94426 301.616 2.68272C302.698 2.42458 303.502 2.09084 304.021 1.69097C304.539 1.28883 304.94 0.853425 305.226 0.384386C305.317 0.288008 305.399 0.239258 305.471 0.239258C305.543 0.239258 305.578 0.288008 305.578 0.384386L310.243 21.0327C310.243 21.1748 310.173 21.2568 310.031 21.2822C309.892 21.3045 309.775 21.219 309.679 21.0327C308.172 16.5528 306.487 13.0768 304.624 10.6012C302.761 8.12788 300.674 6.38364 298.363 5.36997C296.052 4.35252 293.435 3.8453 290.513 3.8453H279.48V26.7583H289.665C294.521 26.7583 296.95 24.3791 296.95 19.6199C296.95 19.3863 297.032 19.2677 297.195 19.2677C297.361 19.2677 297.446 19.3863 297.446 19.6199V34.8219C297.446 35.0105 297.361 35.1046 297.195 35.1046C297.032 35.1046 296.95 35.0105 296.95 34.8219C296.95 32.0893 296.359 30.2045 295.179 29.1708C294.001 28.1337 292.165 27.6136 289.665 27.6136H279.48V51.7969H291.926C294.425 51.7969 296.701 51.563 298.751 51.092C300.803 50.62 302.677 49.7348 304.373 48.4362C306.071 47.1405 307.638 45.289 309.076 42.8856C310.518 40.4833 311.895 37.3463 313.215 33.4791Z" fill="#FEFEFE"/>
<path d="M360.458 51.5139L361.235 51.6579V52.5745H354.308C352.607 52.5745 351.308 52.1976 350.414 51.4444C349.518 50.6919 348.823 49.7013 348.33 48.4744C347.837 47.2491 347.282 45.9735 346.667 44.6549L344.617 40.1285C343.39 37.3449 342.115 34.9634 340.795 32.9821C339.474 31.002 337.802 29.4831 335.776 28.4237C333.75 27.3643 331.038 26.8332 327.643 26.8332H326.721V41.6101C326.721 44.8623 326.897 47.2468 327.249 48.756C327.604 50.264 328.277 51.2172 329.266 51.6216C330.258 52.0215 331.697 52.2464 333.586 52.291C333.82 52.291 333.947 52.376 333.968 52.5435C333.991 52.7064 333.865 52.7895 333.586 52.7895C332.027 52.7895 330.824 52.7631 329.973 52.7132C329.127 52.6656 328.433 52.6311 327.888 52.6066C327.348 52.5843 326.772 52.5745 326.155 52.5745H321.208C320.597 52.5745 320.018 52.5843 319.475 52.6066C318.935 52.6311 318.227 52.6656 317.353 52.7132C316.481 52.7631 315.267 52.7895 313.708 52.7895C313.474 52.7895 313.368 52.7064 313.389 52.5435C313.413 52.376 313.522 52.291 313.708 52.291C315.595 52.2464 317.034 52.0215 318.026 51.6216C319.016 51.2172 319.689 50.264 320.038 48.756C320.395 47.2468 320.572 44.8623 320.572 41.6101V14.0293C320.572 10.777 320.395 8.39594 320.038 6.8898C319.689 5.3795 319.016 4.41232 318.026 3.98788C317.034 3.56684 315.595 3.35405 313.708 3.35405C313.522 3.35405 313.413 3.27204 313.389 3.10914C313.368 2.94397 313.474 2.85856 313.708 2.85856C315.267 2.85856 316.481 2.88199 317.353 2.92734C318.227 2.97383 318.935 3.00823 319.475 3.03355C320.018 3.05812 320.597 3.07021 321.208 3.07021H326.155C326.772 3.07021 327.348 3.05812 327.888 3.03355C328.433 3.00823 329.127 2.97383 329.973 2.92734C330.824 2.88199 332.027 2.85856 333.586 2.85856C333.865 2.85856 333.991 2.94397 333.968 3.10914C333.947 3.27204 333.82 3.35405 333.586 3.35405C331.697 3.35405 330.258 3.56684 329.266 3.98788C328.277 4.41232 327.604 5.3795 327.249 6.8898C326.897 8.39594 326.721 10.777 326.721 14.0293V26.0565H330.118C333.136 26.0565 335.553 25.5958 337.364 24.6804C339.182 23.7597 340.632 22.4985 341.717 20.893C342.799 19.2904 343.698 17.522 344.406 15.5861L346.453 9.99808C347.348 7.6423 348.324 5.78165 349.385 4.41535C350.446 3.04716 352.134 2.3623 354.446 2.3623C356.05 2.3623 357.464 2.76331 358.69 3.56797C359.917 4.36885 360.532 5.42599 360.532 6.7458C360.532 7.78517 360.177 8.58416 359.472 9.1492C358.764 9.71537 357.865 9.99808 356.783 9.99808C355.225 9.99808 353.904 9.61143 352.819 8.83587C351.734 8.05767 350.818 6.93742 350.064 5.47701C349.777 5.42599 349.377 5.82737 348.858 6.67588C348.336 7.52702 347.821 8.70397 347.306 10.212L345.254 16.0128C344.403 18.321 343.212 20.4542 341.678 22.4131C340.147 24.3701 337.825 25.6998 334.716 26.4069C338.534 26.882 341.621 28.0491 343.977 29.9117C346.335 31.7701 348.316 34.4448 349.919 37.9375L353.316 44.9387C353.88 46.0688 354.399 47.0839 354.866 47.9782C355.339 48.8735 356.002 49.617 356.851 50.2077C357.702 50.7951 358.902 51.2293 360.458 51.5139Z" fill="#FEFEFE"/>
<path d="M410.175 52.2905C410.364 52.2905 410.457 52.3756 410.457 52.543C410.457 52.7059 410.364 52.7891 410.175 52.7891C408.428 52.7891 407.215 52.7512 406.533 52.6817C405.852 52.6084 405.181 52.574 404.517 52.574H399.073C398.458 52.574 397.867 52.5838 397.303 52.6061C396.737 52.6307 396.004 52.6651 395.111 52.7127C394.214 52.7626 392.989 52.7891 391.438 52.7891C391.245 52.7891 391.149 52.7059 391.149 52.543C391.149 52.3756 391.245 52.2905 391.438 52.2905C394.262 52.2459 395.899 51.4692 396.348 49.9623C396.794 48.4509 396.194 45.7848 394.545 41.9683L393.062 38.2874C391.507 38.2874 390.15 38.2874 388.992 38.2874C387.839 38.2874 386.672 38.2874 385.491 38.2874C384.312 38.2874 382.898 38.2874 381.253 38.2874H368.524L367.178 41.1198C365.717 44.1857 365.365 46.8019 366.118 48.9706C366.871 51.1389 368.78 52.2217 371.845 52.2217C372.077 52.2217 372.195 52.317 372.195 52.5052C372.195 52.6938 372.077 52.7891 371.845 52.7891C369.533 52.7891 367.577 52.7512 365.973 52.6817C364.369 52.6084 363.097 52.574 362.154 52.574C361.59 52.574 360.846 52.6084 359.927 52.6817C359.007 52.7512 357.865 52.7891 356.496 52.7891C356.355 52.7891 356.283 52.7059 356.283 52.543C356.283 52.3756 356.355 52.2905 356.496 52.2905C358.286 52.2459 359.996 51.1601 361.62 49.0382C363.248 46.916 364.77 44.3709 366.187 41.4032L380.893 10.3555C380.424 9.41028 379.953 8.47825 379.48 7.56095C379.011 6.64026 378.515 5.70936 377.997 4.7675C377.9 4.62539 377.925 4.53015 378.067 4.48367C379.01 4.2002 380.059 3.77462 381.214 3.20844C382.367 2.64303 383.157 1.96385 383.583 1.16183C383.583 1.16183 383.603 1.14936 383.648 1.12404C383.7 1.09834 383.748 1.11194 383.793 1.16183L401.05 41.8919C402.136 44.4427 403.103 46.4716 403.953 47.9777C404.803 49.4846 405.707 50.5705 406.671 51.23C407.639 51.8926 408.806 52.2459 410.175 52.2905ZM381.253 37.4396H392.707C390.961 33.1502 389.219 28.9183 387.474 24.7487C385.729 20.5765 383.676 16.0611 381.322 11.2044L368.941 37.4396H381.253Z" fill="#FEFEFE"/>
<path d="M187.691 68.9642V68.9907C188.799 69.1694 190.29 69.8263 190.29 71.3861C190.29 72.7263 189.058 73.9713 186.021 73.9713L179.577 73.9702L179.578 63.9824L186.022 63.9835C188.704 63.9835 189.949 65.2289 189.949 66.5703C189.948 67.9524 188.744 68.7866 187.691 68.9642ZM185.94 65.1741L180.933 65.173L180.932 68.3886H186.049C187.869 68.3897 188.567 67.6913 188.567 66.7755C188.567 65.859 187.883 65.1741 185.94 65.1741ZM180.932 72.7808H185.939C188.224 72.7808 188.908 72.0974 188.908 71.1805C188.908 70.264 188.211 69.5667 186.049 69.5652H180.932L180.932 72.7808Z" fill="#FEFEFE"/>
<path d="M200.435 63.987H202.2L196.904 70.1696L196.903 73.9733H195.549L195.549 70.1291L190.214 63.9844L192.007 63.9855L196.234 68.9242L200.435 63.987Z" fill="#FEFEFE"/>
<path d="M218.404 71.6231V72.7312C218.404 73.2778 218.514 73.6342 218.938 73.9762H217.433C217.104 73.6478 216.981 73.2778 216.981 72.7312V71.6915C216.982 70.0213 216.654 69.6933 214.847 69.6933L209.498 69.6918L209.497 73.9751L208.143 73.9739L208.144 63.9873H214.753C217.53 63.9884 218.775 65.2338 218.775 66.6564C218.774 68.1614 217.475 68.8992 216.407 69.0779V69.1048C217.68 69.2836 218.405 69.858 218.404 71.6231ZM209.498 68.5023H214.574C216.681 68.5023 217.393 67.805 217.393 66.8477C217.393 65.8763 216.695 65.1779 214.643 65.1779L209.499 65.1767L209.498 68.5023Z" fill="#FEFEFE"/>
<path d="M226.394 63.9902L231.906 73.978H230.401L228.951 71.2821H222.658L221.221 73.9765H219.716L225.19 63.9902H226.394ZM228.323 70.1055L225.792 65.3709L223.274 70.1055H228.323Z" fill="#FEFEFE"/>
<path d="M242.748 65.0323L234.497 72.7886L242.843 72.7897L242.842 73.9807L232.567 73.978L232.568 72.9383L240.819 65.1819L232.87 65.1808V63.9902L242.748 63.9925L242.748 65.0323Z" fill="#FEFEFE"/>
<path d="M251.64 72.2854L257.073 63.9943H258.715L258.713 73.9821H257.358L257.36 65.7873L251.982 73.9821H251.284L245.908 65.649L245.907 73.9809H244.552L244.554 63.9932H246.291L251.64 72.2854Z" fill="#FEFEFE"/>
<path d="M266.611 63.9951L272.123 73.9844H270.618L269.168 71.2885L262.875 71.2873L261.438 73.9829H259.933L265.407 63.9951H266.611ZM268.539 70.1119L266.009 65.3773L263.49 70.1108L268.539 70.1119Z" fill="#FEFEFE"/>
<path d="M283.347 72.0567L283.348 63.9976L284.662 63.9987L284.66 73.9854H283.484L274.66 65.5839L274.659 73.9843H273.345L273.347 63.9961H274.865L283.347 72.0567Z" fill="#FEFEFE"/>
<path d="M291.719 63.999L298.149 64.0005C300.94 64.0005 302.199 65.2595 302.199 66.8469C302.197 68.4347 300.94 69.6925 298.148 69.6925L293.072 69.691V73.9868H291.716L291.719 63.999ZM293.072 68.5016H298.039C300.118 68.5016 300.817 67.8043 300.817 66.8469C300.817 65.8884 300.119 65.1911 298.04 65.1911L293.073 65.1896L293.072 68.5016Z" fill="#FEFEFE"/>
<path d="M314.017 71.6377L314.016 72.7459C314.016 73.2935 314.126 73.6484 314.55 73.9909H313.045C312.716 73.6624 312.594 73.2924 312.594 72.7459V71.7061C312.595 70.0363 312.266 69.7079 310.46 69.7079L305.11 69.7064V73.9897H303.756L303.757 64.002L310.364 64.0031C313.143 64.0031 314.388 65.2484 314.387 66.6711C314.387 68.1761 313.087 68.9153 312.019 69.0926V69.1194C313.292 69.2982 314.017 69.8727 314.017 71.6377ZM305.11 68.517H310.187C312.293 68.5185 313.006 67.8196 313.006 66.8623C313.006 65.8913 312.308 65.1925 310.256 65.1925H305.111L305.11 68.517Z" fill="#FEFEFE"/>
<path d="M322.048 74.129C317.929 74.1278 315.822 72.0204 315.823 69.1612V68.8327C315.823 65.9735 317.93 63.8661 322.049 63.8672C326.194 63.8672 328.301 65.9746 328.301 68.8354V69.1638C328.3 72.023 326.193 74.129 322.048 74.129ZM322.062 72.9384C325.358 72.9384 326.918 71.3786 326.919 69.1498V68.8478C326.919 66.6175 325.36 65.0581 322.063 65.0581C318.765 65.0566 317.205 66.6164 317.205 68.8467V69.1472C317.204 71.3775 318.764 72.9384 322.062 72.9384Z" fill="#FEFEFE"/>
<path d="M330.078 64.0059H335.538C339.642 64.007 341.734 66.1145 341.734 68.81V69.1933C341.734 71.9017 339.641 73.9948 335.537 73.9936H330.077L330.078 64.0059ZM340.352 69.1933V68.8089C340.354 66.7434 338.807 65.1975 335.25 65.1964H331.432V72.8031L335.249 72.8042C338.807 72.8042 340.352 71.2588 340.352 69.1933Z" fill="#FEFEFE"/>
<path d="M343.315 69.7812V64.0068L344.671 64.0083L344.67 69.6304C344.67 71.7783 345.818 72.9284 348.828 72.9284C351.839 72.9295 352.987 71.7794 352.987 69.6315L352.989 64.0083L354.343 64.0095V69.7827C354.341 72.3959 352.604 74.1329 348.828 74.1329C345.053 74.1318 343.314 72.3947 343.315 69.7812Z" fill="#FEFEFE"/>
<path d="M355.986 69.168V68.8396C355.987 65.98 358.095 63.8729 362.24 63.874C366.07 63.874 367.918 65.7075 368.273 67.9238H366.864C366.562 66.3099 365.222 65.0646 362.226 65.0634C358.929 65.0634 357.368 66.6229 357.368 68.8532V69.154C357.368 71.3843 358.928 72.9438 362.224 72.9453C365.235 72.9453 366.562 71.6175 366.863 70.0857H368.273C367.916 72.3024 366.069 74.1358 362.238 74.1343C358.092 74.1343 355.986 72.0272 355.986 69.168Z" fill="#FEFEFE"/>
<path d="M373.842 65.2028L368.875 65.2017V64.0107L380.177 64.0134V65.2028H375.21L375.209 74H373.841L373.842 65.2028Z" fill="#FEFEFE"/>
<path d="M383.101 64.0127L383.099 74.0005H381.745L381.747 64.0127H383.101Z" fill="#FEFEFE"/>
<path d="M391.112 74.1387C386.993 74.1376 384.886 72.0301 384.887 69.1709V68.8425C384.887 65.9833 386.994 63.877 391.113 63.877C395.258 63.8785 397.365 65.9844 397.364 68.8451V69.1732C397.364 72.0328 395.257 74.1387 391.112 74.1387ZM391.126 72.9482C394.422 72.9482 395.982 71.3884 395.983 69.1592V68.8576C395.983 66.6273 394.423 65.0675 391.126 65.0675C387.829 65.0664 386.269 66.6258 386.268 68.8565V69.1581C386.268 71.3873 387.828 72.9482 391.126 72.9482Z" fill="#FEFEFE"/>
<path d="M409.142 72.0762L409.144 64.0168H410.457L410.456 74.0045H409.279L400.456 65.603L400.454 74.0034H399.141L399.142 64.0156H400.661L409.142 72.0762Z" fill="#FEFEFE"/>
</svg>
