<svg xmlns="http://www.w3.org/2000/svg" viewBox="0 0 25 25" role="img" aria-label="5AOF">
  <path
    fill="#ffffff"
    stroke="#ffffff"
    fill-opacity="1"
    stroke-width="1"
    stroke-opacity="1"
    fill-rule="evenodd"
    d="M12.5011 24.0003C6.1596 24.0003 1.0002 18.8421 1.0002 12.5017C1.0002 6.1599 6.1596 1.0003 12.5011 1.0003C18.8418 1.0003 24.0002 6.1599 24.0002 12.5017C24.0004 18.8419 18.842 24.0003 12.5011 24.0003ZM12.5011 1.6701C6.529 1.6701 1.6703 6.5291 1.6703 12.5015C1.6703 18.4725 6.529 23.3303 12.5011 23.3303C18.4724 23.3303 23.3304 18.4725 23.3304 12.5015C23.3304 6.5291 18.4726 1.6701 12.5011 1.6701Z"
  />
  <path
    fill="#ffffff"
    stroke="#ffffff"
    fill-opacity="1"
    stroke-width="1"
    stroke-opacity="1"
    fill-rule="evenodd"
    d="M10.8826 17.5585C10.6248 17.5586 10.4635 17.2797 10.5922 17.0563C10.6067 17.0312 10.6245 17.008 10.645 16.9874C12.1308 15.4932 13.6165 13.9989 15.1023 12.5047C13.6168 11.0192 12.1312 9.5337 10.6457 8.0482C10.4633 7.8659 10.5466 7.5546 10.7957 7.4878C10.9113 7.4568 11.0346 7.4898 11.1193 7.5744C12.6835 9.1386 14.2478 10.7029 15.8121 12.2671C15.9428 12.3975 15.943 12.6091 15.8128 12.7402C14.2485 14.3133 12.6842 15.8865 11.1199 17.4596C11.0549 17.5256 10.9688 17.5585 10.8826 17.5585Z"
  />
</svg>
