<svg xmlns="http://www.w3.org/2000/svg" viewBox="0 0 25 25" role="img" aria-label="0;55">
  <path
    fill="#ffffff"
    stroke="#ffffff"
    fill-opacity="1"
    stroke-width="1"
    stroke-opacity="1"
    fill-rule="evenodd"
    d="M12.5013 24.0003C6.1598 24.0003 1.0004 18.8421 1.0004 12.5017C1.0004 6.1599 6.1598 1.0003 12.5013 1.0003C18.842 1.0003 24.0004 6.1599 24.0004 12.5017C24.0006 18.8419 18.8422 24.0003 12.5013 24.0003ZM12.5013 1.6701C6.5292 1.6701 1.6705 6.5291 1.6705 12.5015C1.6705 18.4725 6.5292 23.3303 12.5013 23.3303C18.4726 23.3303 23.3306 18.4725 23.3306 12.5015C23.3306 6.5291 18.4728 1.6701 12.5013 1.6701Z"
  />
  <path
    fill="#ffffff"
    stroke="#ffffff"
    fill-opacity="1"
    stroke-width="1"
    stroke-opacity="1"
    fill-rule="evenodd"
    d="M10.8828 17.5585C10.625 17.5586 10.4637 17.2797 10.5924 17.0563C10.6069 17.0312 10.6247 17.008 10.6452 16.9874C12.131 15.4932 13.6167 13.9989 15.1025 12.5047C13.617 11.0192 12.1314 9.5337 10.6459 8.0482C10.4635 7.8659 10.5468 7.5546 10.7959 7.4878C10.9115 7.4568 11.0348 7.4898 11.1195 7.5744C12.6837 9.1386 14.248 10.7029 15.8123 12.2671C15.943 12.3975 15.9432 12.6091 15.813 12.7402C14.2487 14.3133 12.6844 15.8865 11.1201 17.4596C11.0551 17.5256 10.969 17.5585 10.8828 17.5585Z"
  />
</svg>
